<?xml version="1.0" encoding="UTF-8" standalone="no"?>
<svg
   version="1.1"
   viewBox="0 0 1331.4366 811.30766"
   width="1331.4366"
   height="811.30768"
   id="svg491"
   sodipodi:docname="interactions_prototype.svg"
   xmlns:inkscape="http://www.inkscape.org/namespaces/inkscape"
   xmlns:sodipodi="http://sodipodi.sourceforge.net/DTD/sodipodi-0.dtd"
   xmlns="http://www.w3.org/2000/svg"
   xmlns:svg="http://www.w3.org/2000/svg">
  <sodipodi:namedview
     id="namedview493"
     pagecolor="#ffffff"
     bordercolor="#000000"
     borderopacity="0.25"
     inkscape:showpageshadow="2"
     inkscape:pageopacity="0.0"
     inkscape:pagecheckerboard="0"
     inkscape:deskcolor="#d1d1d1"
     showgrid="false" />
  <!-- svg-source:excalidraw -->
  <defs
     id="defs13">
    <style
       class="style-fonts"
       id="style11">
      @font-face {
        font-family: &quot;Virgil&quot;;
        src: url(&quot;https://file%2B.vscode-resource.vscode-cdn.net/c%3A/Users/phili/.vscode/extensions/pomdtr.excalidraw-editor-3.5.1/public//dist/excalidraw-assets/Virgil.woff2&quot;);
      }
      @font-face {
        font-family: &quot;Cascadia&quot;;
        src: url(&quot;https://file%2B.vscode-resource.vscode-cdn.net/c%3A/Users/phili/.vscode/extensions/pomdtr.excalidraw-editor-3.5.1/public//dist/excalidraw-assets/Cascadia.woff2&quot;);
      }
    </style>
  </defs>
  <g
     stroke-linecap="round"
     transform="translate(691.38636,195.32738)"
     id="g17">
    <path
       d="m 32,0 m 0,0 C 138,0 244.01,0 495,0 M 32,0 c 93.89,0 187.78,0 463,0 m 0,0 c 21.33,0 32,10.67 32,32 M 495,0 c 21.33,0 32,10.67 32,32 m 0,0 c 0,21.85 0,43.69 0,68 m 0,-68 c 0,14.64 0,29.27 0,68 m 0,0 c 0,21.33 -10.67,32 -32,32 m 32,-32 c 0,21.33 -10.67,32 -32,32 m 0,0 c -169.04,0 -338.08,0 -463,0 m 463,0 c -120.85,0 -241.71,0 -463,0 m 0,0 C 10.67,132 0,121.33 0,100 m 32,32 C 10.67,132 0,121.33 0,100 m 0,0 C 0,82.81 0,65.62 0,32 m 0,68 C 0,86.03 0,72.06 0,32 m 0,0 C 0,10.67 10.67,0 32,0 M 0,32 C 0,10.67 10.67,0 32,0"
       stroke="#364fc7"
       stroke-width="1"
       fill="none"
       id="path15" />
  </g>
  <g
     transform="translate(890.43323,200.32738)"
     id="g21">
    <text
       x="64.453125"
       y="0"
       font-family="Cascadia, 'Segoe UI Emoji'"
       font-size="20px"
       fill="#364fc7"
       text-anchor="middle"
       style="white-space:pre"
       direction="ltr"
       dominant-baseline="text-before-edge"
       id="text19">fetchSPARQL</text>
  </g>
  <g
     stroke-opacity="0.5"
     fill-opacity="0.5"
     stroke-linecap="round"
     transform="translate(0.7499996,182.90702)"
     id="g25">
    <path
       d="M 0,0 C 143.09,0 286.19,0 625,0 M 0,0 c 202.63,0 405.25,0 625,0 m 0,0 c 0,168.98 0,337.97 0,526 M 625,0 c 0,180.54 0,361.07 0,526 m 0,0 c -228.19,0 -456.37,0 -625,0 m 625,0 c -129.62,0 -259.25,0 -625,0 m 0,0 C 0,393.05 0,260.09 0,0 M 0,526 C 0,347.65 0,169.31 0,0"
       stroke="#5c940d"
       stroke-width="1"
       fill="none"
       id="path23" />
  </g>
  <g
     stroke-opacity="0.5"
     fill-opacity="0.5"
     transform="translate(219.5,187.90702)"
     id="g29">
    <text
       x="93.75"
       y="0"
       font-family="Cascadia, 'Segoe UI Emoji'"
       font-size="20px"
       fill="#5c940d"
       text-anchor="middle"
       style="white-space:pre"
       direction="ltr"
       dominant-baseline="text-before-edge"
       id="text27">Query processing</text>
  </g>
  <g
     stroke-opacity="0.5"
     fill-opacity="0.5"
     stroke-linecap="round"
     transform="translate(23.891242,392.9181)"
     id="g33">
    <path
       d="M 0,0 C 132.33,0 264.67,0 578,0 M 0,0 c 187.39,0 374.78,0 578,0 m 0,0 c 0,93.81 0,187.62 0,292 M 578,0 c 0,100.22 0,200.44 0,292 m 0,0 c -211.03,0 -422.06,0 -578,0 m 578,0 c -119.88,0 -239.75,0 -578,0 m 0,0 C 0,218.19 0,144.39 0,0 M 0,292 C 0,192.99 0,93.99 0,0"
       stroke="#5c940d"
       stroke-width="1"
       fill="none"
       id="path31" />
  </g>
  <g
     stroke-opacity="0.5"
     fill-opacity="0.5"
     transform="translate(225.00062,655.9181)"
     id="g37">
    <text
       x="87.890625"
       y="0"
       font-family="Cascadia, 'Segoe UI Emoji'"
       font-size="20px"
       fill="#5c940d"
       text-anchor="middle"
       style="white-space:pre"
       direction="ltr"
       dominant-baseline="text-before-edge"
       id="text35">Partial queries</text>
  </g>
  <g
     stroke-linecap="round"
     transform="translate(37.08109,419.80411)"
     id="g41">
    <path
       d="m 18,0 m 0,0 c 44.42,0 88.83,0 194,0 M 18,0 c 39.34,0 78.68,0 194,0 m 0,0 c 12,0 18,6 18,18 M 212,0 c 12,0 18,6 18,18 m 0,0 c 0,11.57 0,23.13 0,36 m 0,-36 c 0,7.75 0,15.5 0,36 m 0,0 c 0,12 -6,18 -18,18 m 18,-18 c 0,12 -6,18 -18,18 m 0,0 C 141.17,72 70.34,72 18,72 m 194,0 c -50.64,0 -101.28,0 -194,0 m 0,0 C 6,72 0,66 0,54 M 18,72 C 6,72 0,66 0,54 m 0,0 C 0,44.9 0,35.8 0,18 M 0,54 C 0,46.6 0,39.21 0,18 m 0,0 C 0,6 6,0 18,0 M 0,18 C 0,6 6,0 18,0"
       stroke="#5c940d"
       stroke-width="1"
       fill="none"
       id="path39" />
  </g>
  <g
     transform="translate(70.04984,443.80411)"
     id="g45">
    <text
       x="82.03125"
       y="0"
       font-family="Cascadia, 'Segoe UI Emoji'"
       font-size="20px"
       fill="#5c940d"
       text-anchor="middle"
       style="white-space:pre"
       direction="ltr"
       dominant-baseline="text-before-edge"
       id="text43">useAutomations</text>
  </g>
  <g
     stroke-linecap="round"
     transform="translate(203.33349,245.69249)"
     id="g49">
    <path
       d="m 19.25,0 m 0,0 c 36.52,0 73.04,0 159.5,0 M 19.25,0 c 32.34,0 64.69,0 159.5,0 m 0,0 C 191.58,0 198,6.42 198,19.25 M 178.75,0 C 191.58,0 198,6.42 198,19.25 m 0,0 c 0,12.37 0,24.74 0,38.5 m 0,-38.5 c 0,8.29 0,16.57 0,38.5 m 0,0 C 198,70.58 191.58,77 178.75,77 M 198,57.75 C 198,70.58 191.58,77 178.75,77 m 0,0 c -58.23,0 -116.47,0 -159.5,0 m 159.5,0 c -41.63,0 -83.27,0 -159.5,0 m 0,0 C 6.42,77 0,70.58 0,57.75 M 19.25,77 C 6.42,77 0,70.58 0,57.75 m 0,0 C 0,48.02 0,38.29 0,19.25 m 0,38.5 C 0,49.84 0,41.93 0,19.25 m 0,0 C 0,6.42 6.42,0 19.25,0 M 0,19.25 C 0,6.42 6.42,0 19.25,0"
       stroke="#5c940d"
       stroke-width="1"
       fill="none"
       id="path47" />
  </g>
  <g
     transform="translate(237.88036,260.19249)"
     id="g55">
    <text
       x="64.453125"
       y="0"
       font-family="Cascadia, 'Segoe UI Emoji'"
       font-size="20px"
       fill="#5c940d"
       text-anchor="middle"
       style="white-space:pre"
       direction="ltr"
       dominant-baseline="text-before-edge"
       id="text51">QueryPannel</text>
    <text
       x="64.453125"
       y="24"
       font-family="Cascadia, 'Segoe UI Emoji'"
       font-size="20px"
       fill="#5c940d"
       text-anchor="middle"
       style="white-space:pre"
       direction="ltr"
       dominant-baseline="text-before-edge"
       id="text53">/selector</text>
  </g>
  <g
     mask="url(#mask-DLgJOC7uiaTUaDPoijkd4)"
     stroke-linecap="round"
     id="g67"
     transform="translate(-9.2500004,-9.2500002)">
    <g
       transform="translate(1147.6841,112.78883)"
       id="g59">
      <path
         d="m 0,0 c 30.94,0.05 61.89,0.1 112.62,0.19 m 0,0 c 0,10.93 0,21.86 0,41.75 m 0,0 c 0,94.52 0,189.04 0,365.3 m 0,0 C 75.66,439.85 38.71,472.45 8.6,499.02"
         stroke="#000000"
         stroke-width="1.5"
         fill="none"
         stroke-dasharray="8, 9"
         id="path57" />
    </g>
    <g
       transform="translate(1147.6841,112.78883)"
       id="g65">
      <path
         d="m 8.6,499.02 6,-13.75 8.39,9.51 -14.39,4.24"
         stroke="none"
         stroke-width="0"
         fill="#000000"
         fill-rule="evenodd"
         id="path61" />
      <path
         d="m 8.6,499.02 c 1.65,-3.78 3.3,-7.56 6,-13.75 m 0,0 c 2.2,2.49 4.39,4.98 8.39,9.51 m 0,0 c -3.72,1.09 -7.45,2.19 -14.39,4.24 m 0,0 c 0,0 0,0 0,0"
         stroke="#000000"
         stroke-width="1.5"
         fill="none"
         id="path63" />
    </g>
  </g>
  <mask
     id="mask-DLgJOC7uiaTUaDPoijkd4">
    <rect
       x="0"
       y="0"
       fill="#ffffff"
       width="1360.3058"
       height="711.8067"
       id="rect69" />
    <rect
       x="1160.6964"
       y="130.72995"
       fill="#000000"
       width="199.21875"
       height="48"
       opacity="1"
       id="rect71" />
  </mask>
  <g
     transform="translate(1151.4464,121.47996)"
     id="g78">
    <text
       x="99.609375"
       y="0"
       font-family="Cascadia, 'Segoe UI Emoji'"
       font-size="20px"
       fill="#000000"
       text-anchor="middle"
       style="white-space:pre"
       direction="ltr"
       dominant-baseline="text-before-edge"
       id="text74">Removes obsolete </text>
    <text
       x="99.609375"
       y="24"
       font-family="Cascadia, 'Segoe UI Emoji'"
       font-size="20px"
       fill="#000000"
       text-anchor="middle"
       style="white-space:pre"
       direction="ltr"
       dominant-baseline="text-before-edge"
       id="text76">entities</text>
  </g>
  <g
     stroke-linecap="round"
     id="g90"
     transform="translate(-9.2500004,-9.2500002)">
    <g
       transform="translate(155.13279,419.04169)"
       id="g82">
      <path
         d="M 0,0 C 8.87,-12.31 44.37,-61.54 53.24,-73.85"
         stroke="#000000"
         stroke-width="1.5"
         fill="none"
         stroke-dasharray="8, 9"
         id="path80" />
    </g>
    <g
       transform="translate(155.13279,419.04169)"
       id="g88">
      <path
         d="m 53.24,-73.85 -2.8,14.73 -10.29,-7.41 13.09,-7.32"
         stroke="none"
         stroke-width="0"
         fill="#000000"
         fill-rule="evenodd"
         id="path84" />
      <path
         d="m 53.24,-73.85 c -1.09,5.74 -2.19,11.49 -2.8,14.73 m 0,0 c -3.54,-2.55 -7.08,-5.1 -10.29,-7.41 m 0,0 c 3.27,-1.83 6.54,-3.65 13.09,-7.32 m 0,0 c 0,0 0,0 0,0"
         stroke="#000000"
         stroke-width="1.5"
         fill="none"
         id="path86" />
    </g>
  </g>
  <mask
     id="mask92" />
  <g
     stroke-linecap="round"
     transform="translate(342.65747,416.09098)"
     id="g96">
    <path
       d="m 18,0 m 0,0 c 44.42,0 88.83,0 194,0 M 18,0 c 39.34,0 78.68,0 194,0 m 0,0 c 12,0 18,6 18,18 M 212,0 c 12,0 18,6 18,18 m 0,0 c 0,11.57 0,23.13 0,36 m 0,-36 c 0,7.75 0,15.5 0,36 m 0,0 c 0,12 -6,18 -18,18 m 18,-18 c 0,12 -6,18 -18,18 m 0,0 C 141.17,72 70.34,72 18,72 m 194,0 c -50.64,0 -101.28,0 -194,0 m 0,0 C 6,72 0,66 0,54 M 18,72 C 6,72 0,66 0,54 m 0,0 C 0,44.9 0,35.8 0,18 M 0,54 C 0,46.6 0,39.21 0,18 m 0,0 C 0,6 6,0 18,0 M 0,18 C 0,6 6,0 18,0"
       stroke="#5c940d"
       stroke-width="1"
       fill="none"
       id="path94" />
  </g>
  <g
     transform="translate(399.06372,440.09098)"
     id="g100">
    <text
       x="58.59375"
       y="0"
       font-family="Cascadia, 'Segoe UI Emoji'"
       font-size="20px"
       fill="#5c940d"
       text-anchor="middle"
       style="white-space:pre"
       direction="ltr"
       dominant-baseline="text-before-edge"
       id="text98">QueryInput</text>
  </g>
  <g
     stroke-linecap="round"
     id="g112"
     transform="translate(-9.2500004,-9.2500002)">
    <g
       transform="translate(455.57827,408.11864)"
       id="g104">
      <path
         d="M 0,0 C -7.96,-10.77 -39.79,-53.84 -47.75,-64.6"
         stroke="#000000"
         stroke-width="1.5"
         fill="none"
         stroke-dasharray="8, 9"
         id="path102" />
    </g>
    <g
       transform="translate(455.57827,408.11864)"
       id="g110">
      <path
         d="m -47.75,-64.6 13.18,7.16 -10.19,7.54 -2.99,-14.7"
         stroke="none"
         stroke-width="0"
         fill="#000000"
         fill-rule="evenodd"
         id="path106" />
      <path
         d="m -47.75,-64.6 c 2.78,1.51 5.56,3.02 13.18,7.16 m 0,0 c -2.48,1.84 -4.96,3.67 -10.19,7.54 m 0,0 c -0.98,-4.84 -1.97,-9.68 -2.99,-14.7 m 0,0 c 0,0 0,0 0,0"
         stroke="#000000"
         stroke-width="1.5"
         fill="none"
         id="path108" />
    </g>
  </g>
  <mask
     id="mask114" />
  <g
     stroke-linecap="round"
     transform="translate(37.08109,563.58355)"
     id="g118">
    <path
       d="m 18,0 m 0,0 c 44.42,0 88.83,0 194,0 M 18,0 c 39.34,0 78.68,0 194,0 m 0,0 c 12,0 18,6 18,18 M 212,0 c 12,0 18,6 18,18 m 0,0 c 0,11.57 0,23.13 0,36 m 0,-36 c 0,7.75 0,15.5 0,36 m 0,0 c 0,12 -6,18 -18,18 m 18,-18 c 0,12 -6,18 -18,18 m 0,0 C 141.17,72 70.34,72 18,72 m 194,0 c -50.64,0 -101.28,0 -194,0 m 0,0 C 6,72 0,66 0,54 M 18,72 C 6,72 0,66 0,54 m 0,0 C 0,44.9 0,35.8 0,18 M 0,54 C 0,46.6 0,39.21 0,18 m 0,0 C 0,6 6,0 18,0 M 0,18 C 0,6 6,0 18,0"
       stroke="#5c940d"
       stroke-width="1"
       fill="none"
       id="path116" />
  </g>
  <g
     transform="translate(75.909215,587.58355)"
     id="g122">
    <text
       x="76.171875"
       y="0"
       font-family="Cascadia, 'Segoe UI Emoji'"
       font-size="20px"
       fill="#5c940d"
       text-anchor="middle"
       style="white-space:pre"
       direction="ltr"
       dominant-baseline="text-before-edge"
       id="text120">GeoSPARQLauto</text>
  </g>
  <g
     stroke-linecap="round"
     id="g134"
     transform="translate(-9.2500004,-9.2500002)">
    <g
       transform="translate(143.02366,563.24255)"
       id="g126">
      <path
         d="M 0,0 C 0.1,-8.19 0.51,-40.97 0.61,-49.16"
         stroke="#000000"
         stroke-width="1.5"
         fill="none"
         stroke-dasharray="8, 9"
         id="path124" />
    </g>
    <g
       transform="translate(143.02366,563.24255)"
       id="g132">
      <path
         d="m 0.61,-49.16 6.17,13.67 -12.67,-0.16 6.5,-13.51"
         stroke="none"
         stroke-width="0"
         fill="#000000"
         fill-rule="evenodd"
         id="path128" />
      <path
         d="m 0.61,-49.16 c 1.56,3.45 3.12,6.9 6.17,13.67 m 0,0 c -3.82,-0.05 -7.65,-0.1 -12.67,-0.16 m 0,0 c 1.91,-3.97 3.82,-7.94 6.5,-13.51 m 0,0 c 0,0 0,0 0,0"
         stroke="#000000"
         stroke-width="1.5"
         fill="none"
         id="path130" />
    </g>
  </g>
  <mask
     id="mask136" />
  <g
     mask="url(#mask-BZrsnRLSrtAiPJJ4DsPH2)"
     stroke-linecap="round"
     id="g148"
     transform="translate(-9.2500004,-9.2500002)">
    <g
       transform="translate(422.21319,287.62533)"
       id="g140">
      <path
         d="M 0,0 C 40.62,0 81.25,0 127.65,0 M 0,0 c 46.3,0 92.59,0 127.65,0 m 0,0 c 48.8,51.61 97.61,103.21 180.21,190.56 M 127.65,0 c 69.25,73.23 138.51,146.46 180.21,190.56"
         stroke="#000000"
         stroke-width="1"
         fill="none"
         id="path138" />
    </g>
    <g
       transform="translate(422.21319,287.62533)"
       id="g146">
      <path
         d="m 307.86,190.56 -13.94,-5.52 9.21,-8.71 4.73,14.23"
         stroke="none"
         stroke-width="0"
         fill="#000000"
         fill-rule="evenodd"
         id="path142" />
      <path
         d="m 307.86,190.56 c -4.44,-1.75 -8.87,-3.51 -13.94,-5.52 m 13.94,5.52 c -5.06,-2 -10.11,-4 -13.94,-5.52 m 0,0 c 2.49,-2.36 4.98,-4.72 9.21,-8.71 m -9.21,8.71 c 3.54,-3.35 7.08,-6.69 9.21,-8.71 m 0,0 c 1.5,4.53 3.01,9.06 4.73,14.23 m -4.73,-14.23 c 1.08,3.26 2.17,6.53 4.73,14.23 m 0,0 c 0,0 0,0 0,0 m 0,0 c 0,0 0,0 0,0"
         stroke="#000000"
         stroke-width="1"
         fill="none"
         id="path144" />
    </g>
  </g>
  <mask
     id="mask-BZrsnRLSrtAiPJJ4DsPH2">
    <rect
       x="0"
       y="0"
       fill="#ffffff"
       width="830.0755"
       height="578.18915"
       id="rect150" />
    <rect
       x="502.98828"
       y="263.62534"
       fill="#000000"
       width="93.75"
       height="48"
       opacity="1"
       id="rect152" />
  </mask>
  <g
     transform="translate(493.73827,254.37533)"
     id="g159">
    <text
       x="46.875"
       y="0"
       font-family="Cascadia, 'Segoe UI Emoji'"
       font-size="20px"
       fill="#000000"
       text-anchor="middle"
       style="white-space:pre"
       direction="ltr"
       dominant-baseline="text-before-edge"
       id="text155">triggers</text>
    <text
       x="46.875"
       y="24"
       font-family="Cascadia, 'Segoe UI Emoji'"
       font-size="20px"
       fill="#000000"
       text-anchor="middle"
       style="white-space:pre"
       direction="ltr"
       dominant-baseline="text-before-edge"
       id="text157">loading</text>
  </g>
  <g
     mask="url(#mask-BsYNxsldcV-3dF1twdk0S)"
     stroke-linecap="round"
     id="g171"
     transform="translate(-9.2500004,-9.2500002)">
    <g
       transform="translate(741.4454,235.5655)"
       id="g163">
      <path
         d="m 0,0 c -24.33,-35.18 -48.65,-70.37 -78.31,-113.26 m 0,0 c 27.99,0 55.99,0 100.1,0"
         stroke="#000000"
         stroke-width="1.5"
         fill="none"
         stroke-dasharray="8, 9"
         id="path161" />
    </g>
    <g
       transform="translate(741.4454,235.5655)"
       id="g169">
      <path
         d="m 21.79,-113.26 -13.6,6.34 v -12.68 l 13.6,6.34"
         stroke="none"
         stroke-width="0"
         fill="#000000"
         fill-rule="evenodd"
         id="path165" />
      <path
         d="m 21.79,-113.26 c -4.23,1.97 -8.45,3.94 -13.6,6.34 m 0,0 c 0,-3.55 0,-7.1 0,-12.68 m 0,0 c 4.76,2.22 9.53,4.44 13.6,6.34 m 0,0 c 0,0 0,0 0,0"
         stroke="#000000"
         stroke-width="1.5"
         fill="none"
         id="path167" />
    </g>
  </g>
  <mask
     id="mask-BsYNxsldcV-3dF1twdk0S">
    <rect
       x="0"
       y="0"
       fill="#ffffff"
       width="941.54443"
       height="448.82834"
       id="rect173" />
    <rect
       x="610.39758"
       y="98.302658"
       fill="#000000"
       width="105.46875"
       height="48"
       opacity="1"
       id="rect175" />
  </mask>
  <g
     transform="translate(601.14758,89.052657)"
     id="g182">
    <text
       x="52.734375"
       y="0"
       font-family="Cascadia, 'Segoe UI Emoji'"
       font-size="20px"
       fill="#000000"
       text-anchor="middle"
       style="white-space:pre"
       direction="ltr"
       dominant-baseline="text-before-edge"
       id="text178">Evaluates</text>
    <text
       x="52.734375"
       y="24"
       font-family="Cascadia, 'Segoe UI Emoji'"
       font-size="20px"
       fill="#000000"
       text-anchor="middle"
       style="white-space:pre"
       direction="ltr"
       dominant-baseline="text-before-edge"
       id="text180">metadata</text>
  </g>
  <g
     mask="url(#mask-ZZul0T2wFVytqkiWi6NBr)"
     stroke-linecap="round"
     id="g194"
     transform="translate(-9.2500004,-9.2500002)">
    <g
       transform="translate(872.18478,469.70109)"
       id="g186">
      <path
         d="M 0,0 C 33.23,-36.74 66.46,-73.49 129.12,-142.78"
         stroke="#000000"
         stroke-width="1.5"
         fill="none"
         stroke-dasharray="8, 9"
         id="path184" />
    </g>
    <g
       transform="translate(872.18478,469.70109)"
       id="g192">
      <path
         d="m 129.12,-142.78 -4.41,14.33 -9.41,-8.5 13.82,-5.83"
         stroke="none"
         stroke-width="0"
         fill="#000000"
         fill-rule="evenodd"
         id="path188" />
      <path
         d="m 129.12,-142.78 c -1.13,3.69 -2.27,7.38 -4.41,14.33 m 0,0 c -2.72,-2.45 -5.43,-4.9 -9.41,-8.5 m 0,0 c 5.22,-2.2 10.45,-4.41 13.82,-5.83 m 0,0 c 0,0 0,0 0,0"
         stroke="#000000"
         stroke-width="1.5"
         fill="none"
         id="path190" />
    </g>
  </g>
  <mask
     id="mask-ZZul0T2wFVytqkiWi6NBr">
    <rect
       x="0"
       y="0"
       fill="#ffffff"
       width="1101.3071"
       height="712.48206"
       id="rect196" />
    <rect
       x="889.87091"
       y="374.31061"
       fill="#000000"
       width="93.75"
       height="48"
       opacity="1"
       id="rect198" />
  </mask>
  <g
     transform="translate(880.62093,365.06062)"
     id="g205">
    <text
       x="46.875"
       y="0"
       font-family="Cascadia, 'Segoe UI Emoji'"
       font-size="20px"
       fill="#000000"
       text-anchor="middle"
       style="white-space:pre"
       direction="ltr"
       dominant-baseline="text-before-edge"
       id="text201">Fetch</text>
    <text
       x="46.875"
       y="24"
       font-family="Cascadia, 'Segoe UI Emoji'"
       font-size="20px"
       fill="#000000"
       text-anchor="middle"
       style="white-space:pre"
       direction="ltr"
       dominant-baseline="text-before-edge"
       id="text203">geometry</text>
  </g>
  <g
     mask="url(#mask-GRk19RIDClWE5uvRYKoLB)"
     stroke-linecap="round"
     id="g217"
     transform="translate(-9.2500004,-9.2500002)">
    <g
       transform="translate(986.6592,674.93101)"
       id="g209">
      <path
         d="m 0,0 c -8.55,1.89 -17.09,3.78 -32.64,7.23 m 0,0 c -69.49,0 -138.98,0 -205.39,0 m 0,0 c -177.77,-69.25 -355.54,-138.5 -464.85,-181.08"
         stroke="#000000"
         stroke-width="1.5"
         fill="none"
         stroke-dasharray="8, 9"
         id="path207" />
    </g>
    <g
       transform="translate(986.6592,674.93101)"
       id="g215">
      <path
         d="m -702.88,-173.85 14.97,-0.97 -4.6,11.81 -10.37,-10.84"
         stroke="none"
         stroke-width="0"
         fill="#000000"
         fill-rule="evenodd"
         id="path211" />
      <path
         d="m -702.88,-173.85 c 3.92,-0.25 7.84,-0.51 14.97,-0.97 m 0,0 c -1.55,4 -3.11,7.99 -4.6,11.81 m 0,0 c -3.96,-4.14 -7.93,-8.29 -10.37,-10.84 m 0,0 c 0,0 0,0 0,0"
         stroke="#000000"
         stroke-width="1.5"
         fill="none"
         id="path213" />
    </g>
  </g>
  <mask
     id="mask-GRk19RIDClWE5uvRYKoLB">
    <rect
       x="0"
       y="0"
       fill="#ffffff"
       width="1789.5355"
       height="956.00439"
       id="rect219" />
    <rect
       x="804.44965"
       y="670.15698"
       fill="#000000"
       width="93.75"
       height="24"
       opacity="1"
       id="rect221" />
  </mask>
  <g
     transform="translate(795.19963,660.90699)"
     id="g226">
    <text
       x="46.875"
       y="0"
       font-family="Cascadia, 'Segoe UI Emoji'"
       font-size="20px"
       fill="#000000"
       text-anchor="middle"
       style="white-space:pre"
       direction="ltr"
       dominant-baseline="text-before-edge"
       id="text224">location</text>
  </g>
  <g
     stroke-linecap="round"
     id="g254"
     transform="translate(-9.2500004,-9.2500002)">
    <g
       transform="translate(181.89877,514.7873)"
       id="g246">
      <path
         d="M 0,0 C 0,11.64 0,23.29 0,46.43"
         stroke="#000000"
         stroke-width="1.5"
         fill="none"
         stroke-dasharray="8, 9"
         id="path244" />
    </g>
    <g
       transform="translate(181.89877,514.7873)"
       id="g252">
      <path
         d="M 0,46.43 -6.34,32.84 H 6.34 L 0,46.43"
         stroke="none"
         stroke-width="0"
         fill="#000000"
         fill-rule="evenodd"
         id="path248" />
      <path
         d="M 0,46.43 C -1.59,43.02 -3.18,39.62 -6.34,32.84 m 0,0 c 4.34,0 8.67,0 12.68,0 m 0,0 C 4.91,35.89 3.49,38.95 0,46.43 m 0,0 c 0,0 0,0 0,0"
         stroke="#000000"
         stroke-width="1.5"
         fill="none"
         id="path250" />
    </g>
  </g>
  <mask
     id="mask256" />
  <g
     stroke-linecap="round"
     transform="translate(949.86484,69.28033)"
     id="g260">
    <path
       d="m 18,0 m 0,0 C 47.08,0 76.15,0 145,0 M 18,0 c 25.75,0 51.51,0 127,0 m 0,0 c 12,0 18,6 18,18 M 145,0 c 12,0 18,6 18,18 m 0,0 c 0,11.57 0,23.13 0,36 m 0,-36 c 0,7.75 0,15.5 0,36 m 0,0 c 0,12 -6,18 -18,18 m 18,-18 c 0,12 -6,18 -18,18 m 0,0 C 98.63,72 52.26,72 18,72 m 127,0 c -33.15,0 -66.3,0 -127,0 m 0,0 C 6,72 0,66 0,54 M 18,72 C 6,72 0,66 0,54 m 0,0 C 0,44.9 0,35.8 0,18 M 0,54 C 0,46.6 0,39.21 0,18 m 0,0 C 0,6 6,0 18,0 M 0,18 C 0,6 6,0 18,0"
       stroke="#862e9c"
       stroke-width="1"
       fill="none"
       id="path258" />
  </g>
  <g
     transform="translate(972.77109,93.28033)"
     id="g264">
    <text
       x="58.59375"
       y="0"
       font-family="Cascadia, 'Segoe UI Emoji'"
       font-size="20px"
       fill="#862e9c"
       text-anchor="middle"
       style="white-space:pre"
       direction="ltr"
       dominant-baseline="text-before-edge"
       id="text262">syncViewer</text>
  </g>
  <g
     stroke-linecap="round"
     transform="translate(767.65423,25.75)"
     id="g268">
    <path
       d="m 32,0 m 0,0 C 99.31,0 166.62,0 326,0 M 32,0 c 59.62,0 119.24,0 294,0 m 0,0 c 21.33,0 32,10.67 32,32 M 326,0 c 21.33,0 32,10.67 32,32 m 0,0 c 0,20.56 0,41.12 0,64 m 0,-64 c 0,13.78 0,27.55 0,64 m 0,0 c 0,21.33 -10.67,32 -32,32 m 32,-32 c 0,21.33 -10.67,32 -32,32 m 0,0 c -107.34,0 -214.68,0 -294,0 m 294,0 c -76.74,0 -153.48,0 -294,0 m 0,0 C 10.67,128 0,117.33 0,96 m 32,32 C 10.67,128 0,117.33 0,96 m 0,0 C 0,79.82 0,63.65 0,32 M 0,96 C 0,82.85 0,69.71 0,32 m 0,0 C 0,10.67 10.67,0 32,0 M 0,32 C 0,10.67 10.67,0 32,0"
       stroke="#862e9c"
       stroke-width="1"
       fill="none"
       id="path266" />
  </g>
  <g
     transform="translate(841.18548,30.75)"
     id="g272">
    <text
       x="105.46875"
       y="0"
       font-family="Cascadia, 'Segoe UI Emoji'"
       font-size="20px"
       fill="#862e9c"
       text-anchor="middle"
       style="white-space:pre"
       direction="ltr"
       dominant-baseline="text-before-edge"
       id="text270">useCachemanagement</text>
  </g>
  <g
     stroke-linecap="round"
     transform="translate(776.98602,70.575718)"
     id="g280">
    <path
       d="m 18,0 m 0,0 C 47.08,0 76.15,0 145,0 M 18,0 c 25.75,0 51.51,0 127,0 m 0,0 c 12,0 18,6 18,18 M 145,0 c 12,0 18,6 18,18 m 0,0 c 0,11.57 0,23.13 0,36 m 0,-36 c 0,7.75 0,15.5 0,36 m 0,0 c 0,12 -6,18 -18,18 m 18,-18 c 0,12 -6,18 -18,18 m 0,0 C 98.63,72 52.26,72 18,72 m 127,0 c -33.15,0 -66.3,0 -127,0 m 0,0 C 6,72 0,66 0,54 M 18,72 C 6,72 0,66 0,54 m 0,0 C 0,44.9 0,35.8 0,18 M 0,54 C 0,46.6 0,39.21 0,18 m 0,0 C 0,6 6,0 18,0 M 0,18 C 0,6 6,0 18,0"
       stroke="#862e9c"
       stroke-width="1"
       fill="none"
       id="path278" />
  </g>
  <g
     transform="translate(817.47039,94.57572)"
     id="g284">
    <text
       x="41.015625"
       y="0"
       font-family="Cascadia, 'Segoe UI Emoji'"
       font-size="20px"
       fill="#862e9c"
       text-anchor="middle"
       style="white-space:pre"
       direction="ltr"
       dominant-baseline="text-before-edge"
       id="text282">evalLRU</text>
  </g>
  <g
     mask="url(#mask-FGYwIYyF-Dlon5tFp4lJo)"
     stroke-linecap="round"
     id="g304"
     transform="translate(-9.2500004,-9.2500002)">
    <g
       transform="translate(805.20924,466.07476)"
       id="g296">
      <path
         d="M 0,0 C 0,-45.69 0,-91.38 0,-140.51"
         stroke="#000000"
         stroke-width="1.5"
         fill="none"
         stroke-dasharray="8, 9"
         id="path294" />
    </g>
    <g
       transform="translate(805.20924,466.07476)"
       id="g302">
      <path
         d="m 0,-140.51 6.34,13.59 H -6.34 L 0,-140.51"
         stroke="none"
         stroke-width="0"
         fill="#000000"
         fill-rule="evenodd"
         id="path298" />
      <path
         d="m 0,-140.51 c 2.06,4.42 4.12,8.84 6.34,13.59 m 0,0 c -4.63,0 -9.26,0 -12.68,0 m 0,0 c 1.96,-4.21 3.92,-8.41 6.34,-13.59 m 0,0 c 0,0 0,0 0,0"
         stroke="#000000"
         stroke-width="1.5"
         fill="none"
         id="path300" />
    </g>
  </g>
  <mask
     id="mask-FGYwIYyF-Dlon5tFp4lJo">
    <rect
       x="0"
       y="0"
       fill="#ffffff"
       width="905.20923"
       height="706.58887"
       id="rect306" />
    <rect
       x="758.33423"
       y="371.81769"
       fill="#000000"
       width="93.75"
       height="48"
       opacity="1"
       id="rect308" />
  </mask>
  <g
     transform="translate(749.08424,362.56769)"
     id="g315">
    <text
       x="46.875"
       y="0"
       font-family="Cascadia, 'Segoe UI Emoji'"
       font-size="20px"
       fill="#000000"
       text-anchor="middle"
       style="white-space:pre"
       direction="ltr"
       dominant-baseline="text-before-edge"
       id="text311">fetch</text>
    <text
       x="46.875"
       y="24"
       font-family="Cascadia, 'Segoe UI Emoji'"
       font-size="20px"
       fill="#000000"
       text-anchor="middle"
       style="white-space:pre"
       direction="ltr"
       dominant-baseline="text-before-edge"
       id="text313">metadata</text>
  </g>
  <g
     stroke-opacity="0.5"
     fill-opacity="0.5"
     stroke-linecap="round"
     transform="translate(693.29318,429.80766)"
     id="g319">
    <path
       d="M 0,0 C 197.55,0 395.11,0 536,0 M 0,0 c 129.17,0 258.34,0 536,0 m 0,0 c 0,96.52 0,193.04 0,381 M 536,0 c 0,136.27 0,272.54 0,381 m 0,0 c -121.21,0 -242.41,0 -536,0 m 536,0 c -201.6,0 -403.21,0 -536,0 m 0,0 C 0,299.15 0,217.31 0,0 M 0,381 C 0,270.72 0,160.44 0,0"
       stroke="#c92a2a"
       stroke-width="1"
       fill="none"
       id="path317" />
  </g>
  <g
     stroke-opacity="0.5"
     fill-opacity="0.5"
     transform="translate(926.13693,434.80766)"
     id="g323">
    <text
       x="35.15625"
       y="0"
       font-family="Cascadia, 'Segoe UI Emoji'"
       font-size="20px"
       fill="#c92a2a"
       text-anchor="middle"
       style="white-space:pre"
       direction="ltr"
       dominant-baseline="text-before-edge"
       id="text321">Viewer</text>
  </g>
  <g
     stroke-linecap="round"
     transform="translate(709.13615,473.0206)"
     id="g327">
    <path
       d="m 32,0 m 0,0 c 41.21,0 82.42,0 180,0 M 32,0 c 36.5,0 73,0 180,0 m 0,0 c 21.33,0 32,10.67 32,32 M 212,0 c 21.33,0 32,10.67 32,32 m 0,0 c 0,28.27 0,56.54 0,88 m 0,-88 c 0,18.94 0,37.88 0,88 m 0,0 c 0,21.33 -10.67,32 -32,32 m 32,-32 c 0,21.33 -10.67,32 -32,32 m 0,0 c -65.72,0 -131.44,0 -180,0 m 180,0 c -46.98,0 -93.97,0 -180,0 m 0,0 C 10.67,152 0,141.33 0,120 m 32,32 C 10.67,152 0,141.33 0,120 m 0,0 C 0,97.76 0,75.51 0,32 m 0,88 C 0,101.92 0,83.85 0,32 m 0,0 C 0,10.67 10.67,0 32,0 M 0,32 C 0,10.67 10.67,0 32,0"
       stroke="#c92a2a"
       stroke-width="1"
       fill="none"
       id="path325" />
  </g>
  <g
     transform="translate(743.24553,478.0206)"
     id="g333">
    <text
       x="87.890625"
       y="0"
       font-family="Cascadia, 'Segoe UI Emoji'"
       font-size="20px"
       fill="#c92a2a"
       text-anchor="middle"
       style="white-space:pre"
       direction="ltr"
       dominant-baseline="text-before-edge"
       id="text329" />
    <text
       x="87.890625"
       y="24"
       font-family="Cascadia, 'Segoe UI Emoji'"
       font-size="20px"
       fill="#c92a2a"
       text-anchor="middle"
       style="white-space:pre"
       direction="ltr"
       dominant-baseline="text-before-edge"
       id="text331">useLoadGeometry</text>
  </g>
  <g
     stroke-linecap="round"
     transform="translate(722.88689,536.4946)"
     id="g337">
    <path
       d="m 18,0 m 0,0 c 41.21,0 82.42,0 180,0 M 18,0 c 36.5,0 73,0 180,0 m 0,0 c 12,0 18,6 18,18 M 198,0 c 12,0 18,6 18,18 m 0,0 c 0,11.57 0,23.13 0,36 m 0,-36 c 0,7.75 0,15.5 0,36 m 0,0 c 0,12 -6,18 -18,18 m 18,-18 c 0,12 -6,18 -18,18 m 0,0 C 132.28,72 66.56,72 18,72 m 180,0 c -46.98,0 -93.97,0 -180,0 m 0,0 C 6,72 0,66 0,54 M 18,72 C 6,72 0,66 0,54 m 0,0 C 0,44.9 0,35.8 0,18 M 0,54 C 0,46.6 0,39.21 0,18 m 0,0 C 0,6 6,0 18,0 M 0,18 C 0,6 6,0 18,0"
       stroke="#c92a2a"
       stroke-width="1"
       fill="none"
       id="path335" />
  </g>
  <g
     transform="translate(760.57439,560.4946)"
     id="g341">
    <text
       x="70.3125"
       y="0"
       font-family="Cascadia, 'Segoe UI Emoji'"
       font-size="20px"
       fill="#c92a2a"
       text-anchor="middle"
       style="white-space:pre"
       direction="ltr"
       dominant-baseline="text-before-edge"
       id="text339">loadGeometry</text>
  </g>
  <g
     stroke-linecap="round"
     transform="translate(720.49495,703.24785)"
     id="g353">
    <path
       d="m 18,0 m 0,0 c 41.21,0 82.42,0 180,0 M 18,0 c 36.5,0 73,0 180,0 m 0,0 c 12,0 18,6 18,18 M 198,0 c 12,0 18,6 18,18 m 0,0 c 0,11.57 0,23.13 0,36 m 0,-36 c 0,7.75 0,15.5 0,36 m 0,0 c 0,12 -6,18 -18,18 m 18,-18 c 0,12 -6,18 -18,18 m 0,0 C 132.28,72 66.56,72 18,72 m 180,0 c -46.98,0 -93.97,0 -180,0 m 0,0 C 6,72 0,66 0,54 M 18,72 C 6,72 0,66 0,54 m 0,0 C 0,44.9 0,35.8 0,18 M 0,54 C 0,46.6 0,39.21 0,18 m 0,0 C 0,6 6,0 18,0 M 0,18 C 0,6 6,0 18,0"
       stroke="#c92a2a"
       stroke-width="1"
       fill="none"
       id="path351" />
  </g>
  <g
     transform="translate(752.32307,727.24785)"
     id="g357">
    <text
       x="76.171875"
       y="0"
       font-family="Cascadia, 'Segoe UI Emoji'"
       font-size="20px"
       fill="#c92a2a"
       text-anchor="middle"
       style="white-space:pre"
       direction="ltr"
       dominant-baseline="text-before-edge"
       id="text355">useInitViewer</text>
  </g>
  <g
     mask="url(#mask-5YoQItjXXlfJjECZTuh-Y)"
     stroke-linecap="round"
     id="g373"
     transform="translate(-9.2500004,-9.2500002)">
    <g
       transform="translate(957.02211,754.20284)"
       id="g365">
      <path
         d="m 0,0 c 31.92,0 63.85,0 130.38,0 m 0,0 c 0,-10.56 0,-21.12 0,-47.83"
         stroke="#000000"
         stroke-width="1.5"
         fill="none"
         stroke-dasharray="8, 9"
         id="path363" />
    </g>
    <g
       transform="translate(957.02211,754.20284)"
       id="g371">
      <path
         d="m 130.38,-47.83 6.34,13.59 h -12.68 l 6.34,-13.59"
         stroke="none"
         stroke-width="0"
         fill="#000000"
         fill-rule="evenodd"
         id="path367" />
      <path
         d="m 130.38,-47.83 c 1.55,3.33 3.1,6.65 6.34,13.59 m 0,0 c -2.8,0 -5.6,0 -12.68,0 m 0,0 c 1.65,-3.55 3.31,-7.1 6.34,-13.59 m 0,0 c 0,0 0,0 0,0"
         stroke="#000000"
         stroke-width="1.5"
         fill="none"
         id="path369" />
    </g>
  </g>
  <mask
     id="mask-5YoQItjXXlfJjECZTuh-Y">
    <rect
       x="0"
       y="0"
       fill="#ffffff"
       width="1187.3984"
       height="902.03613"
       id="rect375" />
    <rect
       x="1028.8047"
       y="742.20282"
       fill="#000000"
       width="117.1875"
       height="24"
       opacity="1"
       id="rect377" />
  </mask>
  <g
     transform="translate(1019.5547,732.95284)"
     id="g382">
    <text
       x="58.59375"
       y="0"
       font-family="Cascadia, 'Segoe UI Emoji'"
       font-size="20px"
       fill="#000000"
       text-anchor="middle"
       style="white-space:pre"
       direction="ltr"
       dominant-baseline="text-before-edge"
       id="text380">initialize</text>
  </g>
  <g
     stroke-linecap="round"
     transform="translate(986.79752,609.77243)"
     id="g386">
    <path
       d="m 18,0 m 0,0 c 41.21,0 82.42,0 180,0 M 18,0 c 36.5,0 73,0 180,0 m 0,0 c 12,0 18,6 18,18 M 198,0 c 12,0 18,6 18,18 m 0,0 c 0,11.57 0,23.13 0,36 m 0,-36 c 0,7.75 0,15.5 0,36 m 0,0 c 0,12 -6,18 -18,18 m 18,-18 c 0,12 -6,18 -18,18 m 0,0 C 132.28,72 66.56,72 18,72 m 180,0 c -46.98,0 -93.97,0 -180,0 m 0,0 C 6,72 0,66 0,54 M 18,72 C 6,72 0,66 0,54 m 0,0 C 0,44.9 0,35.8 0,18 M 0,54 C 0,46.6 0,39.21 0,18 m 0,0 C 0,6 6,0 18,0 M 0,18 C 0,6 6,0 18,0"
       stroke="#c92a2a"
       stroke-width="1"
       fill="none"
       id="path384" />
  </g>
  <g
     transform="translate(1059.6413,633.77243)"
     id="g390">
    <text
       x="35.15625"
       y="0"
       font-family="Cascadia, 'Segoe UI Emoji'"
       font-size="20px"
       fill="#c92a2a"
       text-anchor="middle"
       style="white-space:pre"
       direction="ltr"
       dominant-baseline="text-before-edge"
       id="text388">Viewer</text>
  </g>
  <g
     stroke-linecap="round"
     transform="translate(703.10709,239.6121)"
     id="g398">
    <path
       d="m 17.25,0 m 0,0 c 44.99,0 89.98,0 196.5,0 M 17.25,0 c 39.85,0 79.69,0 196.5,0 m 0,0 C 225.25,0 231,5.75 231,17.25 M 213.75,0 C 225.25,0 231,5.75 231,17.25 m 0,0 c 0,11.08 0,22.17 0,34.5 m 0,-34.5 c 0,7.43 0,14.85 0,34.5 m 0,0 C 231,63.25 225.25,69 213.75,69 M 231,51.75 C 231,63.25 225.25,69 213.75,69 m 0,0 c -71.74,0 -143.48,0 -196.5,0 m 196.5,0 c -51.29,0 -102.58,0 -196.5,0 m 0,0 C 5.75,69 0,63.25 0,51.75 M 17.25,69 C 5.75,69 0,63.25 0,51.75 m 0,0 C 0,43.03 0,34.31 0,17.25 m 0,34.5 C 0,44.66 0,37.58 0,17.25 m 0,0 C 0,5.75 5.75,0 17.25,0 M 0,17.25 C 0,5.75 5.75,0 17.25,0"
       stroke="#364fc7"
       stroke-width="1"
       fill="none"
       id="path396" />
  </g>
  <g
     transform="translate(757.15103,262.66464)"
     id="g402">
    <text
       x="61.456055"
       y="0"
       font-family="Cascadia, 'Segoe UI Emoji'"
       font-size="19.0791px"
       fill="#364fc7"
       text-anchor="middle"
       style="white-space:pre"
       direction="ltr"
       dominant-baseline="text-before-edge"
       id="text400">getEntities</text>
  </g>
  <g
     stroke-linecap="round"
     transform="translate(971.43591,238.1121)"
     id="g410">
    <path
       d="m 18,0 m 0,0 c 44.65,0 89.29,0 195,0 M 18,0 c 39.54,0 79.08,0 195,0 m 0,0 c 12,0 18,6 18,18 M 213,0 c 12,0 18,6 18,18 m 0,0 c 0,11.57 0,23.13 0,36 m 0,-36 c 0,7.75 0,15.5 0,36 m 0,0 c 0,12 -6,18 -18,18 m 18,-18 c 0,12 -6,18 -18,18 m 0,0 C 141.81,72 70.61,72 18,72 m 195,0 c -50.9,0 -101.8,0 -195,0 m 0,0 C 6,72 0,66 0,54 M 18,72 C 6,72 0,66 0,54 m 0,0 C 0,44.9 0,35.8 0,18 M 0,54 C 0,46.6 0,39.21 0,18 m 0,0 C 0,6 6,0 18,0 M 0,18 C 0,6 6,0 18,0"
       stroke="#364fc7"
       stroke-width="1"
       fill="none"
       id="path408" />
  </g>
  <g
     transform="translate(1025.4799,262.66464)"
     id="g414">
    <text
       x="61.456055"
       y="0"
       font-family="Cascadia, 'Segoe UI Emoji'"
       font-size="19.0791px"
       fill="#364fc7"
       text-anchor="middle"
       style="white-space:pre"
       direction="ltr"
       dominant-baseline="text-before-edge"
       id="text412">getGeometry</text>
  </g>
  <g
     transform="translate(38.751225,22.698238)"
     id="g438">
    <text
       x="0"
       y="0"
       font-family="Cascadia, 'Segoe UI Emoji'"
       font-size="16px"
       fill="#000000"
       text-anchor="start"
       style="white-space:pre"
       direction="ltr"
       dominant-baseline="text-before-edge"
       id="text432">component</text>
    <text
       x="0"
       y="19.200001"
       font-family="Cascadia, 'Segoe UI Emoji'"
       font-size="16px"
       fill="#000000"
       text-anchor="start"
       style="white-space:pre"
       direction="ltr"
       dominant-baseline="text-before-edge"
       id="text434">hook</text>
    <text
       x="0"
       y="38.400002"
       font-family="Cascadia, 'Segoe UI Emoji'"
       font-size="16px"
       fill="#000000"
       text-anchor="start"
       style="white-space:pre"
       direction="ltr"
       dominant-baseline="text-before-edge"
       id="text436">function</text>
  </g>
  <g
     stroke-linecap="round"
     id="g450"
     transform="translate(-9.2500004,-9.2500002)">
    <g
       transform="translate(175.00726,88.169443)"
       id="g442">
      <path
         d="M 0,0 C 20.99,0 41.98,0 61.97,0 M 0,0 c 24.78,0 49.56,0 61.97,0"
         stroke="#000000"
         stroke-width="1"
         fill="none"
         id="path440" />
    </g>
    <g
       transform="translate(175.00726,88.169443)"
       id="g448">
      <path
         d="M 61.97,0 48.37,6.34 V -6.34 L 61.97,0"
         stroke="none"
         stroke-width="0"
         fill="#000000"
         fill-rule="evenodd"
         id="path444" />
      <path
         d="M 61.97,0 C 57.36,2.15 52.76,4.29 48.37,6.34 M 61.97,0 C 56.53,2.53 51.1,5.07 48.37,6.34 m 0,0 c 0,-4.43 0,-8.86 0,-12.68 m 0,12.68 c 0,-4.61 0,-9.23 0,-12.68 m 0,0 c 3.37,1.57 6.73,3.14 13.6,6.34 m -13.6,-6.34 c 3.17,1.48 6.33,2.95 13.6,6.34 m 0,0 c 0,0 0,0 0,0 m 0,0 c 0,0 0,0 0,0"
         stroke="#000000"
         stroke-width="1"
         fill="none"
         id="path446" />
    </g>
  </g>
  <mask
     id="mask452" />
  <g
     transform="translate(164.75775,18.751409)"
     id="g458">
    <text
       x="0"
       y="0"
       font-family="Cascadia, 'Segoe UI Emoji'"
       font-size="16px"
       fill="#000000"
       text-anchor="start"
       style="white-space:pre"
       direction="ltr"
       dominant-baseline="text-before-edge"
       id="text454">triggered by:</text>
    <text
       x="0"
       y="19.200001"
       font-family="Cascadia, 'Segoe UI Emoji'"
       font-size="16px"
       fill="#000000"
       text-anchor="start"
       style="white-space:pre"
       direction="ltr"
       dominant-baseline="text-before-edge"
       id="text456">state change (Recoil)</text>
  </g>
  <g
     stroke-linecap="round"
     transform="translate(0.7499996,0.74999982)"
     id="g462">
    <path
       d="m 0,0 c 131.09,0 262.18,0 376.51,0 m 0,0 c 0,35.69 0,71.37 0,98.22 m 0,0 c -90.9,0 -181.8,0 -376.51,0 m 0,0 C 0,64.85 0,31.49 0,0"
       stroke="#000000"
       stroke-width="1.5"
       fill="none"
       stroke-dasharray="1.5, 7"
       id="path460" />
  </g>
  <g
     mask="url(#mask-LJNoEJcBAdVLn1R75eb9A)"
     stroke-linecap="round"
     id="g474"
     transform="translate(-9.2500004,-9.2500002)">
    <g
       transform="translate(976.85876,514.72272)"
       id="g466">
      <path
         d="m 0,0 c 28.49,0 56.98,0 111.25,0 m 0,0 c 0,29.46 0,58.93 0,95"
         stroke="#000000"
         stroke-width="1.5"
         fill="none"
         stroke-dasharray="8, 9"
         id="path464" />
    </g>
    <g
       transform="translate(976.85876,514.72272)"
       id="g472">
      <path
         d="m 111.25,95 -6.34,-13.59 h 12.68 L 111.25,95"
         stroke="none"
         stroke-width="0"
         fill="#000000"
         fill-rule="evenodd"
         id="path468" />
      <path
         d="M 111.25,95 C 109.63,91.52 108,88.04 104.91,81.41 m 0,0 c 3.93,0 7.86,0 12.68,0 m 0,0 c -1.71,3.67 -3.43,7.34 -6.34,13.59 m 0,0 c 0,0 0,0 0,0"
         stroke="#000000"
         stroke-width="1.5"
         fill="none"
         id="path470" />
    </g>
  </g>
  <mask
     id="mask-LJNoEJcBAdVLn1R75eb9A">
    <rect
       x="0"
       y="0"
       fill="#ffffff"
       width="1188.1088"
       height="709.72272"
       id="rect476" />
    <rect
       x="1041.2338"
       y="490.72272"
       fill="#000000"
       width="93.75"
       height="48"
       opacity="1"
       id="rect478" />
  </mask>
  <g
     transform="translate(1031.9838,481.47272)"
     id="g485">
    <text
       x="46.875"
       y="0"
       font-family="Cascadia, 'Segoe UI Emoji'"
       font-size="20px"
       fill="#000000"
       text-anchor="middle"
       style="white-space:pre"
       direction="ltr"
       dominant-baseline="text-before-edge"
       id="text481">load</text>
    <text
       x="46.875"
       y="24"
       font-family="Cascadia, 'Segoe UI Emoji'"
       font-size="20px"
       fill="#000000"
       text-anchor="middle"
       style="white-space:pre"
       direction="ltr"
       dominant-baseline="text-before-edge"
       id="text483">geometry</text>
  </g>
</svg>
