<?xml version="1.0" encoding="UTF-8" standalone="no"?>
<svg
   version="1.1"
   viewBox="0 0 832.0192997623026 635.0402426372316"
   width="832.0192997623026"
   height="635.0402426372316"
   id="svg292"
   sodipodi:docname="omg1.svg"
   inkscape:version="1.2.2 (732a01da63, 2022-12-09)"
   inkscape:export-filename="..\pdf\omg1.pdf"
   inkscape:export-xdpi="96"
   inkscape:export-ydpi="96"
   xmlns:inkscape="http://www.inkscape.org/namespaces/inkscape"
   xmlns:sodipodi="http://sodipodi.sourceforge.net/DTD/sodipodi-0.dtd"
   xmlns="http://www.w3.org/2000/svg"
   xmlns:svg="http://www.w3.org/2000/svg">
  <sodipodi:namedview
     id="namedview294"
     pagecolor="#ffffff"
     bordercolor="#000000"
     borderopacity="0.25"
     inkscape:showpageshadow="2"
     inkscape:pageopacity="0.0"
     inkscape:pagecheckerboard="0"
     inkscape:deskcolor="#d1d1d1"
     showgrid="false"
     inkscape:zoom="0.92307779"
     inkscape:cx="246.99977"
     inkscape:cy="319.58303"
     inkscape:window-width="1920"
     inkscape:window-height="1009"
     inkscape:window-x="-8"
     inkscape:window-y="-8"
     inkscape:window-maximized="1"
     inkscape:current-layer="svg292" />
  <!-- svg-source:excalidraw -->
  <defs
     id="defs4">
    <style
       class="style-fonts"
       id="style2">
      @font-face {
        font-family: &quot;Virgil&quot;;
        src: url(&quot;https://file%2B.vscode-resource.vscode-cdn.net/c%3A/Users/phili/.vscode/extensions/pomdtr.excalidraw-editor-3.5.1/public//dist/excalidraw-assets/Virgil.woff2&quot;);
      }
      @font-face {
        font-family: &quot;Cascadia&quot;;
        src: url(&quot;https://file%2B.vscode-resource.vscode-cdn.net/c%3A/Users/phili/.vscode/extensions/pomdtr.excalidraw-editor-3.5.1/public//dist/excalidraw-assets/Cascadia.woff2&quot;);
      }
    </style>
    <mask
       maskUnits="userSpaceOnUse"
       id="mask987">
      <g
         id="g995"
         transform="translate(-345.96954,-272.08917)">
        <g
           id="g993">
          <rect
             x="0"
             y="0"
             fill="#ffffff"
             width="616.16608"
             height="521.258"
             id="rect989" />
          <rect
             x="207.2435"
             y="328.94788"
             fill="#000000"
             width="131.25"
             height="19"
             opacity="1"
             id="rect991" />
        </g>
      </g>
    </mask>
    <mask
       maskUnits="userSpaceOnUse"
       id="mask1006">
      <g
         id="g1014"
         transform="translate(-376.08797,-272.44742)">
        <g
           id="g1012">
          <rect
             x="0"
             y="0"
             fill="#ffffff"
             width="528.49384"
             height="527.13422"
             id="rect1008" />
          <rect
             x="336.26382"
             y="360.51962"
             fill="#000000"
             width="84.375"
             height="19"
             opacity="1"
             id="rect1010" />
        </g>
      </g>
    </mask>
    <mask
       maskUnits="userSpaceOnUse"
       id="mask1025">
      <g
         id="g1033"
         transform="translate(-376.08797,-272.44742)">
        <g
           id="g1031">
          <rect
             x="0"
             y="0"
             fill="#ffffff"
             width="528.49384"
             height="527.13422"
             id="rect1027" />
          <rect
             x="336.26382"
             y="360.51962"
             fill="#000000"
             width="84.375"
             height="19"
             opacity="1"
             id="rect1029" />
        </g>
      </g>
    </mask>
    <mask
       maskUnits="userSpaceOnUse"
       id="mask1044">
      <g
         id="g1052"
         transform="translate(-345.96954,-272.08917)">
        <g
           id="g1050">
          <rect
             x="0"
             y="0"
             fill="#ffffff"
             width="616.16608"
             height="521.258"
             id="rect1046" />
          <rect
             x="207.2435"
             y="328.94788"
             fill="#000000"
             width="131.25"
             height="19"
             opacity="1"
             id="rect1048" />
        </g>
      </g>
    </mask>
    <mask
       maskUnits="userSpaceOnUse"
       id="mask1063">
      <g
         id="g1071"
         transform="translate(-376.08797,-272.44742)">
        <g
           id="g1069">
          <rect
             x="0"
             y="0"
             fill="#ffffff"
             width="528.49384"
             height="527.13422"
             id="rect1065" />
          <rect
             x="336.26382"
             y="360.51962"
             fill="#000000"
             width="84.375"
             height="19"
             opacity="1"
             id="rect1067" />
        </g>
      </g>
    </mask>
    <mask
       maskUnits="userSpaceOnUse"
       id="mask1082">
      <g
         id="g1090"
         transform="translate(-345.96954,-272.08917)">
        <g
           id="g1088">
          <rect
             x="0"
             y="0"
             fill="#ffffff"
             width="616.16608"
             height="521.258"
             id="rect1084" />
          <rect
             x="207.2435"
             y="328.94788"
             fill="#000000"
             width="131.25"
             height="19"
             opacity="1"
             id="rect1086" />
        </g>
      </g>
    </mask>
    <mask
       maskUnits="userSpaceOnUse"
       id="mask1102">
      <g
         id="g1110"
         transform="translate(-416.26658,-271.46711)">
        <g
           id="g1108">
          <rect
             x="0"
             y="0"
             fill="#ffffff"
             width="716.16547"
             height="523.17419"
             id="rect1104" />
          <rect
             x="477.17358"
             y="336.88431"
             fill="#000000"
             width="84.375"
             height="19.200001"
             opacity="1"
             id="rect1106" />
        </g>
      </g>
    </mask>
    <mask
       maskUnits="userSpaceOnUse"
       id="mask1122">
      <g
         id="g1130"
         transform="translate(-466.18098,-257.85089)">
        <g
           id="g1128">
          <rect
             x="0"
             y="0"
             fill="#ffffff"
             width="851.20203"
             height="524.38879"
             id="rect1124" />
          <rect
             x="618.28101"
             y="348.07785"
             fill="#000000"
             width="187.5"
             height="19"
             opacity="1"
             id="rect1126" />
        </g>
      </g>
    </mask>
    <mask
       maskUnits="userSpaceOnUse"
       id="mask1141">
      <g
         id="g1149"
         transform="translate(-466.18098,-257.85089)">
        <g
           id="g1147">
          <rect
             x="0"
             y="0"
             fill="#ffffff"
             width="851.20203"
             height="524.38879"
             id="rect1143" />
          <rect
             x="618.28101"
             y="348.07785"
             fill="#000000"
             width="187.5"
             height="19"
             opacity="1"
             id="rect1145" />
        </g>
      </g>
    </mask>
    <mask
       maskUnits="userSpaceOnUse"
       id="mask1162">
      <g
         id="g1170"
         transform="translate(-466.18098,-257.85089)">
        <g
           id="g1168">
          <rect
             x="0"
             y="0"
             fill="#ffffff"
             width="851.20203"
             height="524.38879"
             id="rect1164" />
          <rect
             x="618.28101"
             y="348.07785"
             fill="#000000"
             width="187.5"
             height="19"
             opacity="1"
             id="rect1166" />
        </g>
      </g>
    </mask>
    <mask
       maskUnits="userSpaceOnUse"
       id="mask1182">
      <g
         id="g1190"
         transform="translate(-416.26658,-271.46711)">
        <g
           id="g1188">
          <rect
             x="0"
             y="0"
             fill="#ffffff"
             width="716.16547"
             height="523.17419"
             id="rect1184" />
          <rect
             x="477.17358"
             y="336.88431"
             fill="#000000"
             width="84.375"
             height="19.200001"
             opacity="1"
             id="rect1186" />
        </g>
      </g>
    </mask>
    <mask
       maskUnits="userSpaceOnUse"
       id="mask1203">
      <g
         id="g1211"
         transform="translate(-416.26658,-271.46711)">
        <g
           id="g1209">
          <rect
             x="0"
             y="0"
             fill="#ffffff"
             width="716.16547"
             height="523.17419"
             id="rect1205" />
          <rect
             x="477.17358"
             y="336.88431"
             fill="#000000"
             width="84.375"
             height="19.200001"
             opacity="1"
             id="rect1207" />
        </g>
      </g>
    </mask>
    <mask
       maskUnits="userSpaceOnUse"
       id="mask1228">
      <g
         id="g1236"
         transform="translate(-378.87557,-84.314261)">
        <g
           id="g1234">
          <rect
             x="0"
             y="0"
             fill="#ffffff"
             width="479.03842"
             height="286.85693"
             id="rect1230" />
          <rect
             x="289.8945"
             y="126.0856"
             fill="#000000"
             width="178.125"
             height="19"
             opacity="1"
             id="rect1232" />
        </g>
      </g>
    </mask>
    <mask
       maskUnits="userSpaceOnUse"
       id="mask1247">
      <g
         id="g1255"
         transform="translate(-378.87557,-84.314261)">
        <g
           id="g1253">
          <rect
             x="0"
             y="0"
             fill="#ffffff"
             width="479.03842"
             height="286.85693"
             id="rect1249" />
          <rect
             x="289.8945"
             y="126.0856"
             fill="#000000"
             width="178.125"
             height="19"
             opacity="1"
             id="rect1251" />
        </g>
      </g>
    </mask>
    <mask
       maskUnits="userSpaceOnUse"
       id="mask1266">
      <g
         id="g1274"
         transform="translate(-286.80608,-253.25386)">
        <g
           id="g1272">
          <rect
             x="0"
             y="0"
             fill="#ffffff"
             width="565.17468"
             height="524.29761"
             id="rect1268" />
          <rect
             x="10"
             y="285.24487"
             fill="#000000"
             width="196.875"
             height="38"
             opacity="1"
             id="rect1270" />
        </g>
      </g>
    </mask>
    <mask
       maskUnits="userSpaceOnUse"
       id="mask1285">
      <g
         id="g1293"
         transform="translate(-286.80608,-253.25386)">
        <g
           id="g1291">
          <rect
             x="0"
             y="0"
             fill="#ffffff"
             width="565.17468"
             height="524.29761"
             id="rect1287" />
          <rect
             x="10"
             y="285.24487"
             fill="#000000"
             width="196.875"
             height="38"
             opacity="1"
             id="rect1289" />
        </g>
      </g>
    </mask>
    <mask
       maskUnits="userSpaceOnUse"
       id="mask1305">
      <g
         id="g1313"
         transform="translate(-378.87557,-84.314261)">
        <g
           id="g1311">
          <rect
             x="0"
             y="0"
             fill="#ffffff"
             width="479.03842"
             height="286.85693"
             id="rect1307" />
          <rect
             x="289.8945"
             y="126.0856"
             fill="#000000"
             width="178.125"
             height="19"
             opacity="1"
             id="rect1309" />
        </g>
      </g>
    </mask>
    <mask
       maskUnits="userSpaceOnUse"
       id="mask1325">
      <g
         id="g1333"
         transform="translate(-286.80608,-253.25386)">
        <g
           id="g1331">
          <rect
             x="0"
             y="0"
             fill="#ffffff"
             width="565.17468"
             height="524.29761"
             id="rect1327" />
          <rect
             x="10"
             y="285.24487"
             fill="#000000"
             width="196.875"
             height="38"
             opacity="1"
             id="rect1329" />
        </g>
      </g>
    </mask>
  </defs>
  <path
     d="m 335.45699,14.0099 m 0,0 c 35.42,0 70.83,0 103,0 m -103,0 c 40.38,0 80.77,0 103,0 m 0,0 c 10,0 15,5 15,15 m -15,-15 c 10,0 15,5 15,15 m 0,0 c 0,9.19 0,18.37 0,30 m 0,-30 c 0,11.71 0,23.43 0,30 m 0,0 c 0,10 -5,15 -15,15 m 15,-15 c 0,10 -5,15 -15,15 m 0,0 c -33.92,0 -67.85,0 -103,0 m 103,0 c -33.16,0 -66.31,0 -103,0 m 0,0 c -10,0 -15,-5 -15,-15 m 15,15 c -10,0 -15,-5 -15,-15 m 0,0 c 0,-10.74 0,-21.48 0,-30 m 0,30 c 0,-6.35 0,-12.7 0,-30 m 0,0 c 0,-10 5,-15 15,-15 m -15,15 c 0,-10 5,-15 15,-15"
     stroke="#000000"
     stroke-width="1"
     fill="none"
     id="path8"
     style="stroke-linecap:round" />
  <text
     x="386.957"
     y="36.009899"
     font-family="Cascadia, 'Segoe UI Emoji'"
     font-size="20px"
     fill="#000000"
     text-anchor="middle"
     style="font-style:normal;font-variant:normal;font-weight:normal;font-stretch:normal;font-size:18.1333px;font-family:'Source Code Pro';-inkscape-font-specification:'Source Code Pro, Normal';font-variant-ligatures:normal;font-variant-caps:normal;font-variant-numeric:normal;font-variant-east-asian:normal;white-space:pre"
     direction="ltr"
     dominant-baseline="text-before-edge"
     id="text12">&lt;room1&gt;</text>
  <path
     d="m 322.70699,198.90188 m 0,0 c 38.8,0 77.59,0 128.5,0 m -128.5,0 c 45.8,0 91.6,0 128.5,0 m 0,0 c 10.83,0 16.25,5.42 16.25,16.25 m -16.25,-16.25 c 10.83,0 16.25,5.42 16.25,16.25 m 0,0 c 0,9.54 0,19.07 0,32.5 m 0,-32.5 c 0,7.62 0,15.24 0,32.5 m 0,0 c 0,10.83 -5.42,16.25 -16.25,16.25 m 16.25,-16.25 c 0,10.83 -5.42,16.25 -16.25,16.25 m 0,0 c -26.29,0 -52.58,0 -128.5,0 m 128.5,0 c -26.08,0 -52.17,0 -128.5,0 m 0,0 c -10.83,0 -16.25,-5.42 -16.25,-16.25 m 16.25,16.25 c -10.83,0 -16.25,-5.42 -16.25,-16.25 m 0,0 c 0,-12.7 0,-25.4 0,-32.5 m 0,32.5 c 0,-10.88 0,-21.75 0,-32.5 m 0,0 c 0,-10.83 5.42,-16.25 16.25,-16.25 m -16.25,16.25 c 0,-10.83 5.42,-16.25 16.25,-16.25"
     stroke="#000000"
     stroke-width="1"
     fill="none"
     id="path16"
     style="stroke-linecap:round" />
  <text
     x="386.957"
     y="223.40189"
     font-family="Cascadia, 'Segoe UI Emoji'"
     font-size="20px"
     fill="#000000"
     text-anchor="middle"
     style="font-style:normal;font-variant:normal;font-weight:normal;font-stretch:normal;font-size:18.1333px;font-family:'Source Code Pro';-inkscape-font-specification:'Source Code Pro, Normal';font-variant-ligatures:normal;font-variant-caps:normal;font-variant-numeric:normal;font-variant-east-asian:normal;white-space:pre"
     direction="ltr"
     dominant-baseline="text-before-edge"
     id="text20">&lt;object1&gt;</text>
  <path
     d="m 62.237257,435.91788 m 0,0 c 63.750003,0 127.490003,0 315.500003,0 m -315.500003,0 c 82.820003,0 165.640003,0 315.500003,0 m 0,0 c 11.17,0 16.75,5.58 16.75,16.75 m -16.75,-16.75 c 11.17,0 16.75,5.58 16.75,16.75 m 0,0 c 0,10.83 0,21.67 0,33.5 m 0,-33.5 c 0,9.63 0,19.26 0,33.5 m 0,0 c 0,11.17 -5.58,16.75 -16.75,16.75 m 16.75,-16.75 c 0,11.17 -5.58,16.75 -16.75,16.75 m 0,0 c -84.32,0 -168.64,0 -315.500003,0 m 315.500003,0 c -91.51,0 -183.03,0 -315.500003,0 m 0,0 c -11.17,0 -16.75,-5.58 -16.75,-16.75 m 16.75,16.75 c -11.17,0 -16.75,-5.58 -16.75,-16.75 m 0,0 c 0,-8.88 0,-17.75 0,-33.5 m 0,33.5 c 0,-9.2 0,-18.39 0,-33.5 m 0,0 c 0,-11.17 5.58,-16.75 16.75,-16.75 m -16.75,16.75 c 0,-11.17 5.58,-16.75 16.75,-16.75"
     stroke="#000000"
     stroke-width="1"
     fill="none"
     id="path24"
     style="stroke-linecap:round" />
  <text
     x="219.98726"
     y="461.41788"
     font-family="Cascadia, 'Segoe UI Emoji'"
     font-size="20px"
     fill="#000000"
     text-anchor="middle"
     style="font-style:normal;font-variant:normal;font-weight:normal;font-stretch:normal;font-size:18.1333px;font-family:'Source Code Pro';-inkscape-font-specification:'Source Code Pro, Normal';font-variant-ligatures:normal;font-variant-caps:normal;font-variant-numeric:normal;font-variant-east-asian:normal;white-space:pre"
     direction="ltr"
     dominant-baseline="text-before-edge"
     id="text28">&lt;geometry_data1&gt;^^xsd:...</text>
  <path
     d="m 436.7693,435.41263 m 0,0 c 100.91,0 201.82,0 376.5,0 m -376.5,0 c 130.67,0 261.34,0 376.5,0 m 0,0 c 11.17,0 16.75,5.58 16.75,16.75 m -16.75,-16.75 c 11.17,0 16.75,5.58 16.75,16.75 m 0,0 c 0,13.03 0,26.07 0,33.5 m 0,-33.5 c 0,11.31 0,22.62 0,33.5 m 0,0 c 0,11.17 -5.58,16.75 -16.75,16.75 m 16.75,-16.75 c 0,11.17 -5.58,16.75 -16.75,16.75 m 0,0 c -103.96,0 -207.93,0 -376.5,0 m 376.5,0 c -141.4,0 -282.8,0 -376.5,0 m 0,0 c -11.17,0 -16.75,-5.58 -16.75,-16.75 m 16.75,16.75 c -11.17,0 -16.75,-5.58 -16.75,-16.75 m 0,0 c 0,-6.78 0,-13.56 0,-33.5 m 0,33.5 c 0,-12.77 0,-25.55 0,-33.5 m 0,0 c 0,-11.17 5.58,-16.75 16.75,-16.75 m -16.75,16.75 c 0,-11.17 5.58,-16.75 16.75,-16.75"
     stroke="#000000"
     stroke-width="1"
     fill="none"
     id="path32"
     style="stroke-linecap:round" />
  <text
     x="625.01929"
     y="460.91263"
     font-family="Cascadia, 'Segoe UI Emoji'"
     font-size="20px"
     fill="#000000"
     text-anchor="middle"
     style="font-style:normal;font-variant:normal;font-weight:normal;font-stretch:normal;font-size:18.1333px;font-family:'Source Code Pro';-inkscape-font-specification:'Source Code Pro, Normal';font-variant-ligatures:normal;font-variant-caps:normal;font-variant-numeric:normal;font-variant-east-asian:normal;white-space:pre"
     direction="ltr"
     dominant-baseline="text-before-edge"
     id="text36">&lt;spacial_data1&gt;^^geo:wktLiteral</text>
  <path
     d="M 0,0 C 0.03,17.09 0.14,85.45 0.16,102.54 M 0,0 c 0.03,17.09 0.14,85.45 0.16,102.54"
     stroke="#000000"
     stroke-width="1"
     fill="none"
     id="path40"
     transform="translate(386.87557,84.314261)"
     style="stroke-linecap:round"
     mask="url(#mask1228)" />
  <path
     d="m -10.14,74.37 c 3.54,9.67 7.07,19.34 10.3,28.17 m -10.3,-28.17 c 3.38,9.24 6.76,18.48 10.3,28.17"
     stroke="#000000"
     stroke-width="1"
     fill="none"
     id="path44"
     transform="translate(386.87557,84.314261)"
     style="stroke-linecap:round"
     mask="url(#mask1247)" />
  <path
     d="M 10.38,74.34 C 6.87,84.02 3.37,93.7 0.16,102.54 m 10.22,-28.2 c -3.35,9.25 -6.7,18.5 -10.22,28.2"
     stroke="#000000"
     stroke-width="1"
     fill="none"
     id="path48"
     transform="translate(386.87557,84.314261)"
     style="stroke-linecap:round"
     mask="url(#mask1305)" />
  <text
     x="386.957"
     y="128.0856"
     font-family="Cascadia, 'Segoe UI Emoji'"
     font-size="16px"
     fill="#000000"
     text-anchor="middle"
     style="font-style:normal;font-variant:normal;font-weight:normal;font-stretch:normal;font-size:18.1333px;font-family:'Source Code Pro';-inkscape-font-specification:'Source Code Pro, Normal';font-variant-ligatures:normal;font-variant-caps:normal;font-variant-numeric:normal;font-variant-east-asian:normal;white-space:pre"
     direction="ltr"
     dominant-baseline="text-before-edge"
     id="text59">bot:containsElement</text>
  <path
     d="m 0,0 c -12.18,11.06 -44.73,41.5 -73.1,66.36 -28.37,24.86 -80.91,69.01 -97.1,82.81 M 0,0 c -12.18,11.06 -44.73,41.5 -73.1,66.36 -28.37,24.86 -80.91,69.01 -97.1,82.81"
     stroke="#000000"
     stroke-width="1"
     fill="none"
     id="path63"
     transform="translate(353.96954,272.08917)"
     style="stroke-linecap:round"
     mask="url(#mask987)" />
  <path
     d="m -155.32,123.12 c -3.91,6.84 -7.82,13.69 -14.88,26.05 m 14.88,-26.05 c -4.35,7.62 -8.71,15.24 -14.88,26.05"
     stroke="#000000"
     stroke-width="1"
     fill="none"
     id="path67"
     transform="translate(353.96954,272.08917)"
     style="stroke-linecap:round"
     mask="url(#mask1044)" />
  <path
     d="m -142.06,138.77 c -7.39,2.73 -14.78,5.47 -28.14,10.4 m 28.14,-10.4 c -8.23,3.05 -16.46,6.09 -28.14,10.4"
     stroke="#000000"
     stroke-width="1"
     fill="none"
     id="path71"
     transform="translate(353.96954,272.08917)"
     style="stroke-linecap:round"
     mask="url(#mask1082)" />
  <text
     x="280.8685"
     y="328.94788"
     font-family="Cascadia, 'Segoe UI Emoji'"
     font-size="16px"
     fill="#000000"
     text-anchor="middle"
     style="font-style:normal;font-variant:normal;font-weight:normal;font-stretch:normal;font-size:18.1333px;font-family:'Source Code Pro';-inkscape-font-specification:'Source Code Pro, Normal';font-variant-ligatures:normal;font-variant-caps:normal;font-variant-numeric:normal;font-variant-east-asian:normal;white-space:pre"
     direction="ltr"
     dominant-baseline="text-before-edge"
     id="text82">fog:as..._v...</text>
  <path
     d="m 0,0 c 0.39,16.26 10.7,71.79 2.36,97.57 -8.34,25.78 -43.67,47.6 -52.4,57.12"
     stroke="#000000"
     stroke-width="1.5"
     fill="none"
     stroke-dasharray="8, 9"
     id="path86"
     transform="translate(384.08797,272.44742)"
     style="fill-opacity:0.5;stroke-linecap:round;stroke-opacity:0.5"
     mask="url(#mask1063)" />
  <path
     d="m -35.33,128.54 c -4.77,8.49 -9.55,16.98 -14.71,26.15"
     stroke="#000000"
     stroke-width="1.5"
     fill="none"
     id="path90"
     transform="translate(384.08797,272.44742)"
     style="fill-opacity:0.5;stroke-linecap:round;stroke-opacity:0.5"
     mask="url(#mask1025)" />
  <path
     d="m -21.96,144.12 c -9.12,3.43 -18.24,6.86 -28.08,10.57"
     stroke="#000000"
     stroke-width="1.5"
     fill="none"
     id="path94"
     transform="translate(384.08797,272.44742)"
     style="fill-opacity:0.5;stroke-linecap:round;stroke-opacity:0.5"
     mask="url(#mask1006)" />
  <text
     x="386.45132"
     y="360.51965"
     font-family="Cascadia, 'Segoe UI Emoji'"
     font-size="16px"
     fill="#000000"
     text-anchor="middle"
     style="font-style:normal;font-variant:normal;font-weight:normal;font-stretch:normal;font-size:18.1333px;font-family:'Source Code Pro';-inkscape-font-specification:'Source Code Pro, Normal';font-variant-ligatures:normal;font-variant-caps:normal;font-variant-numeric:normal;font-variant-east-asian:normal;white-space:pre;fill-opacity:0.5;stroke-opacity:0.5"
     direction="ltr"
     dominant-baseline="text-before-edge"
     id="text105">fog:as...</text>
  <path
     d="m 0,0 c -29.73,8.5 -149.89,22.48 -178.37,50.99 -28.48,28.51 6.23,100.04 7.48,120.05"
     stroke="#000000"
     stroke-width="1.5"
     fill="none"
     stroke-dasharray="8, 9"
     id="path109"
     transform="translate(294.80608,253.25386)"
     style="fill-opacity:0.5;stroke-linecap:round;stroke-opacity:0.5"
     mask="url(#mask1325)" />
  <path
     d="m -187.84,146.29 c 4.45,6.51 8.91,13.01 16.95,24.75"
     stroke="#000000"
     stroke-width="1.5"
     fill="none"
     id="path113"
     transform="translate(294.80608,253.25386)"
     style="fill-opacity:0.5;stroke-linecap:round;stroke-opacity:0.5"
     mask="url(#mask1266)" />
  <path
     d="m -167.97,141.19 c -0.77,7.84 -1.53,15.69 -2.92,29.85"
     stroke="#000000"
     stroke-width="1.5"
     fill="none"
     id="path117"
     transform="translate(294.80608,253.25386)"
     style="fill-opacity:0.5;stroke-linecap:round;stroke-opacity:0.5"
     mask="url(#mask1285)" />
  <text
     x="116.4375"
     y="287.24487"
     font-family="Cascadia, 'Segoe UI Emoji'"
     font-size="16px"
     fill="#000000"
     text-anchor="middle"
     style="font-style:normal;font-variant:normal;font-weight:normal;font-stretch:normal;font-size:18.1333px;font-family:'Source Code Pro';-inkscape-font-specification:'Source Code Pro, Normal';font-variant-ligatures:normal;font-variant-caps:normal;font-variant-numeric:normal;font-variant-east-asian:normal;white-space:pre;fill-opacity:0.5;stroke-opacity:0.5"
     direction="ltr"
     dominant-baseline="text-before-edge"
     id="text128">omg:hasSimpleGeometry</text>
  <text
     x="116.4375"
     y="306.24487"
     font-family="Cascadia, 'Segoe UI Emoji'"
     font-size="16px"
     fill="#000000"
     text-anchor="middle"
     style="font-style:normal;font-variant:normal;font-weight:normal;font-stretch:normal;font-size:18.1333px;font-family:'Source Code Pro';-inkscape-font-specification:'Source Code Pro, Normal';font-variant-ligatures:normal;font-variant-caps:normal;font-variant-numeric:normal;font-variant-east-asian:normal;white-space:pre;fill-opacity:0.5;stroke-opacity:0.5"
     direction="ltr"
     dominant-baseline="text-before-edge"
     id="text130">Description</text>
  <path
     d="m 0,0 c 17.18,12.5 69.78,49.73 103.09,75.02 33.32,25.28 80.67,63.91 96.81,76.69 M 0,0 c 17.18,12.5 69.78,49.73 103.09,75.02 33.32,25.28 80.67,63.91 96.81,76.69"
     stroke="#000000"
     stroke-width="1"
     fill="none"
     id="path134"
     transform="translate(424.26658,271.46711)"
     style="stroke-linecap:round"
     mask="url(#mask1203)" />
  <path
     d="m 171.49,142.08 c 9.02,3.06 18.05,6.12 28.41,9.63 m -28.41,-9.63 c 11.08,3.75 22.16,7.51 28.41,9.63"
     stroke="#000000"
     stroke-width="1"
     fill="none"
     id="path138"
     transform="translate(424.26658,271.46711)"
     style="stroke-linecap:round"
     mask="url(#mask1182)" />
  <path
     d="m 184.32,126.07 c 4.95,8.14 9.9,16.29 15.58,25.64 m -15.58,-25.64 c 6.08,10 12.15,20 15.58,25.64"
     stroke="#000000"
     stroke-width="1"
     fill="none"
     id="path142"
     transform="translate(424.26658,271.46711)"
     style="stroke-linecap:round"
     mask="url(#mask1102)" />
  <text
     x="527.36108"
     y="336.88431"
     font-family="Cascadia, 'Segoe UI Emoji'"
     font-size="16px"
     fill="#000000"
     text-anchor="middle"
     style="font-style:normal;font-variant:normal;font-weight:normal;font-stretch:normal;font-size:18.1333px;font-family:'Source Code Pro';-inkscape-font-specification:'Source Code Pro, Normal';font-variant-ligatures:normal;font-variant-caps:normal;font-variant-numeric:normal;font-variant-east-asian:normal;white-space:pre"
     direction="ltr"
     dominant-baseline="text-before-edge"
     id="text153">geo:asWKT</text>
  <path
     d="m 475.09985,584.04024 c 0,1.65 -0.18,3.31 -0.52,4.94 -0.35,1.64 -0.88,3.27 -1.57,4.87 -0.69,1.6 -1.56,3.19 -2.59,4.73 -1.02,1.54 -2.22,3.06 -3.57,4.51 -1.34,1.46 -2.85,2.88 -4.5,4.24 -1.64,1.36 -3.44,2.66 -5.36,3.9 -1.92,1.23 -3.98,2.41 -6.15,3.5 -2.16,1.09 -4.46,2.12 -6.84,3.05 -2.38,0.94 -4.88,1.8 -7.44,2.56 -2.56,0.77 -5.22,1.45 -7.93,2.04 -2.7,0.58 -5.49,1.07 -8.3,1.47 -2.81,0.39 -5.68,0.69 -8.55,0.89 -2.87,0.2 -5.79,0.3 -8.68,0.3 -2.89,0 -5.81,-0.1 -8.68,-0.3 -2.87,-0.2 -5.74,-0.5 -8.55,-0.89 -2.81,-0.4 -5.6,-0.89 -8.3,-1.47 -2.71,-0.59 -5.37,-1.27 -7.93,-2.04 -2.56,-0.76 -5.06,-1.62 -7.44,-2.56 -2.38,-0.93 -4.68,-1.96 -6.84,-3.05 -2.17,-1.09 -4.23,-2.27 -6.15,-3.5 -1.92,-1.24 -3.72,-2.54 -5.36,-3.9 -1.65,-1.36 -3.16,-2.78 -4.5,-4.24 -1.35,-1.45 -2.55,-2.97 -3.57,-4.51 -1.03,-1.54 -1.9,-3.13 -2.59,-4.73 -0.69,-1.6 -1.22,-3.23 -1.57,-4.87 -0.34,-1.63 -0.52,-3.29 -0.52,-4.94 0,-1.65 0.18,-3.31 0.52,-4.94 0.35,-1.64 0.88,-3.27 1.57,-4.87 0.69,-1.6 1.56,-3.19 2.59,-4.73 1.02,-1.54 2.22,-3.06 3.57,-4.51 1.34,-1.46 2.85,-2.88 4.5,-4.24 1.64,-1.36 3.44,-2.66 5.36,-3.9 1.92,-1.23 3.98,-2.41 6.15,-3.5 2.16,-1.09 4.46,-2.12 6.84,-3.05 2.38,-0.94 4.88,-1.8 7.44,-2.56 2.56,-0.77 5.22,-1.45 7.93,-2.04 2.7,-0.58 5.49,-1.07 8.3,-1.47 2.81,-0.39 5.68,-0.69 8.55,-0.89 2.87,-0.2 5.79,-0.3 8.68,-0.3 2.89,0 5.81,0.1 8.68,0.3 2.87,0.2 5.74,0.5 8.55,0.89 2.81,0.4 5.6,0.89 8.3,1.47 2.71,0.59 5.37,1.27 7.93,2.04 2.56,0.76 5.06,1.62 7.44,2.56 2.38,0.93 4.68,1.96 6.84,3.05 2.17,1.09 4.23,2.27 6.15,3.5 1.92,1.24 3.72,2.54 5.36,3.9 1.65,1.36 3.16,2.78 4.5,4.24 1.35,1.45 2.55,2.97 3.57,4.51 1.03,1.54 1.9,3.13 2.59,4.73 0.69,1.6 1.22,3.23 1.57,4.87 0.34,1.63 0.52,3.29 0.52,4.94"
     stroke="#364fc7"
     stroke-width="1.5"
     fill="none"
     stroke-dasharray="8, 9"
     id="path157"
     style="stroke-linecap:round" />
  <text
     x="403.18814"
     y="576.04889"
     font-family="Cascadia, 'Segoe UI Emoji'"
     font-size="20px"
     fill="#364fc7"
     text-anchor="middle"
     style="font-style:normal;font-variant:normal;font-weight:normal;font-stretch:normal;font-size:18.1333px;font-family:'Source Code Pro';-inkscape-font-specification:'Source Code Pro, Normal';font-variant-ligatures:normal;font-variant-caps:normal;font-variant-numeric:normal;font-variant-east-asian:normal;white-space:pre"
     direction="ltr"
     dominant-baseline="text-before-edge"
     id="text161">Literal</text>
  <path
     d="m 305.13629,514.95016 c 5.5,5.5 27.5,27.5 33,33 m -33,-33 c 5.5,5.5 27.5,27.5 33,33"
     stroke="#364fc7"
     stroke-width="1"
     fill="none"
     id="path165"
     style="stroke-linecap:round" />
  <path
     d="m 316.98629,538.09016 c 4.39,2.04 8.77,4.09 21.15,9.86 m -21.15,-9.86 c 4.96,2.31 9.92,4.62 21.15,9.86"
     stroke="#364fc7"
     stroke-width="1"
     fill="none"
     id="path169"
     style="stroke-linecap:round" />
  <path
     d="m 328.27629,526.80016 c 2.04,4.39 4.09,8.77 9.86,21.15 m -9.86,-21.15 c 2.31,4.96 4.62,9.92 9.86,21.15"
     stroke="#364fc7"
     stroke-width="1"
     fill="none"
     id="path173"
     style="stroke-linecap:round" />
  <mask
     id="mask179" />
  <path
     d="m 514.46894,514.95016 c -6.19,5.67 -30.94,28.36 -37.12,34.03 m 37.12,-34.03 c -6.19,5.67 -30.94,28.36 -37.12,34.03"
     stroke="#364fc7"
     stroke-width="1"
     fill="none"
     id="path181"
     style="stroke-linecap:round" />
  <path
     d="m 488.96894,526.64016 c -3.56,6.84 -7.12,13.68 -11.62,22.34 m 11.62,-22.34 c -3.34,6.42 -6.68,12.85 -11.62,22.34"
     stroke="#364fc7"
     stroke-width="1"
     fill="none"
     id="path185"
     style="stroke-linecap:round" />
  <path
     d="m 500.60894,539.34016 c -7.13,2.95 -14.25,5.9 -23.26,9.64 m 23.26,-9.64 c -6.69,2.77 -13.38,5.54 -23.26,9.64"
     stroke="#364fc7"
     stroke-width="1"
     fill="none"
     id="path189"
     style="stroke-linecap:round" />
  <mask
     id="mask195" />
  <path
     d="m 695.06845,43 c 0,1.33 -0.2,2.66 -0.59,3.98 -0.39,1.31 -0.98,2.63 -1.76,3.92 -0.78,1.28 -1.76,2.56 -2.91,3.8 -1.16,1.24 -2.51,2.46 -4.02,3.64 -1.51,1.17 -3.21,2.31 -5.06,3.41 -1.85,1.09 -3.87,2.14 -6.03,3.13 -2.16,1 -4.48,1.94 -6.92,2.82 -2.43,0.88 -5.02,1.71 -7.7,2.46 -2.68,0.75 -5.49,1.44 -8.37,2.06 -2.88,0.62 -5.87,1.17 -8.92,1.64 -3.04,0.47 -6.18,0.86 -9.34,1.18 -3.16,0.32 -6.39,0.56 -9.62,0.72 -3.23,0.16 -6.51,0.24 -9.76,0.24 -3.25,0 -6.53,-0.08 -9.76,-0.24 -3.23,-0.16 -6.46,-0.4 -9.62,-0.72 -3.16,-0.32 -6.3,-0.71 -9.34,-1.18 -3.05,-0.47 -6.04,-1.02 -8.92,-1.64 -2.88,-0.62 -5.69,-1.31 -8.37,-2.06 -2.68,-0.75 -5.27,-1.58 -7.7,-2.46 -2.44,-0.88 -4.76,-1.82 -6.92,-2.82 -2.16,-0.99 -4.18,-2.04 -6.03,-3.13 -1.85,-1.1 -3.55,-2.24 -5.06,-3.41 -1.51,-1.18 -2.86,-2.4 -4.02,-3.64 -1.15,-1.24 -2.13,-2.52 -2.91,-3.8 -0.78,-1.29 -1.37,-2.61 -1.76,-3.92 -0.39,-1.32 -0.59,-2.65 -0.59,-3.98 0,-1.33 0.2,-2.66 0.59,-3.98 0.39,-1.31 0.98,-2.63 1.76,-3.92 0.78,-1.28 1.76,-2.56 2.91,-3.8 1.16,-1.24 2.51,-2.46 4.02,-3.64 1.51,-1.17 3.21,-2.31 5.06,-3.41 1.85,-1.09 3.87,-2.14 6.03,-3.13 2.16,-1 4.48,-1.94 6.92,-2.82 2.43,-0.88 5.02,-1.71 7.7,-2.46 2.68,-0.75 5.49,-1.44 8.37,-2.06 2.88,-0.62 5.87,-1.17 8.92,-1.64 3.04,-0.47 6.18,-0.86 9.34,-1.18 3.16,-0.32 6.39,-0.56 9.62,-0.72 3.23,-0.16 6.51,-0.24 9.76,-0.24 3.25,0 6.53,0.08 9.76,0.24 3.23,0.16 6.46,0.4 9.62,0.72 3.16,0.32 6.3,0.71 9.34,1.18 3.05,0.47 6.04,1.02 8.92,1.64 2.88,0.62 5.69,1.31 8.37,2.06 2.68,0.75 5.27,1.58 7.7,2.46 2.44,0.88 4.76,1.82 6.92,2.82 2.16,0.99 4.18,2.04 6.03,3.13 1.85,1.1 3.55,2.24 5.06,3.41 1.51,1.18 2.86,2.4 4.02,3.64 1.15,1.24 2.13,2.52 2.91,3.8 0.78,1.29 1.37,2.61 1.76,3.92 0.39,1.32 0.59,2.65 0.59,3.98"
     stroke="#364fc7"
     stroke-width="1"
     fill="none"
     id="path197"
     style="stroke-linecap:round" />
  <text
     x="614.29279"
     y="35.165474"
     font-family="Cascadia, 'Segoe UI Emoji'"
     font-size="20px"
     fill="#364fc7"
     text-anchor="middle"
     style="font-style:normal;font-variant:normal;font-weight:normal;font-stretch:normal;font-size:18.1333px;font-family:'Source Code Pro';-inkscape-font-specification:'Source Code Pro, Normal';font-variant-ligatures:normal;font-variant-caps:normal;font-variant-numeric:normal;font-variant-east-asian:normal;white-space:pre"
     direction="ltr"
     dominant-baseline="text-before-edge"
     id="text201">bot:Zone</text>
  <path
     d="m 810.846,172.01756 c 0,1.15 -0.2,2.31 -0.59,3.45 -0.39,1.14 -0.97,2.29 -1.75,3.41 -0.77,1.13 -1.74,2.24 -2.9,3.34 -1.15,1.09 -2.49,2.17 -4.01,3.22 -1.52,1.05 -3.22,2.08 -5.09,3.08 -1.86,1 -3.9,1.97 -6.1,2.9 -2.19,0.93 -4.55,1.83 -7.04,2.68 -2.5,0.86 -5.15,1.67 -7.92,2.44 -2.77,0.77 -5.69,1.5 -8.71,2.18 -3.01,0.67 -6.16,1.3 -9.39,1.88 -3.23,0.57 -6.57,1.1 -9.98,1.57 -3.41,0.46 -6.91,0.88 -10.46,1.23 -3.54,0.36 -7.17,0.66 -10.81,0.9 -3.65,0.24 -7.36,0.42 -11.07,0.54 -3.7,0.12 -7.45,0.18 -11.18,0.18 -3.73,0 -7.48,-0.06 -11.18,-0.18 -3.71,-0.12 -7.42,-0.3 -11.07,-0.54 -3.64,-0.24 -7.27,-0.54 -10.81,-0.9 -3.55,-0.35 -7.05,-0.77 -10.46,-1.23 -3.41,-0.47 -6.75,-1 -9.98,-1.57 -3.23,-0.58 -6.38,-1.21 -9.39,-1.88 -3.02,-0.68 -5.94,-1.41 -8.71,-2.18 -2.77,-0.77 -5.42,-1.58 -7.92,-2.44 -2.49,-0.85 -4.85,-1.75 -7.04,-2.68 -2.2,-0.93 -4.24,-1.9 -6.1,-2.9 -1.87,-1 -3.57,-2.03 -5.09,-3.08 -1.52,-1.05 -2.86,-2.13 -4.01,-3.22 -1.16,-1.1 -2.13,-2.21 -2.9,-3.34 -0.78,-1.12 -1.36,-2.27 -1.75,-3.41 -0.39,-1.14 -0.59,-2.3 -0.59,-3.45 0,-1.15 0.2,-2.31 0.59,-3.45 0.39,-1.14 0.97,-2.29 1.75,-3.41 0.77,-1.13 1.74,-2.24 2.9,-3.34 1.15,-1.09 2.49,-2.17 4.01,-3.22 1.52,-1.05 3.22,-2.08 5.09,-3.08 1.86,-1 3.9,-1.97 6.1,-2.9 2.19,-0.93 4.55,-1.83 7.04,-2.68 2.5,-0.86 5.15,-1.67 7.92,-2.44 2.77,-0.77 5.69,-1.5 8.71,-2.18 3.01,-0.67 6.16,-1.3 9.39,-1.88 3.23,-0.57 6.57,-1.1 9.98,-1.57 3.41,-0.46 6.91,-0.88 10.46,-1.23 3.54,-0.36 7.17,-0.66 10.81,-0.9 3.65,-0.24 7.36,-0.42 11.07,-0.54 3.7,-0.12 7.45,-0.18 11.18,-0.18 3.73,0 7.48,0.06 11.18,0.18 3.71,0.12 7.42,0.3 11.07,0.54 3.64,0.24 7.27,0.54 10.81,0.9 3.55,0.35 7.05,0.77 10.46,1.23 3.41,0.47 6.75,1 9.98,1.57 3.23,0.58 6.38,1.21 9.39,1.88 3.02,0.68 5.94,1.41 8.71,2.18 2.77,0.77 5.42,1.58 7.92,2.44 2.49,0.85 4.85,1.75 7.04,2.68 2.2,0.93 4.24,1.9 6.1,2.9 1.87,1 3.57,2.03 5.09,3.08 1.52,1.05 2.86,2.13 4.01,3.22 1.16,1.1 2.13,2.21 2.9,3.34 0.78,1.12 1.36,2.27 1.75,3.41 0.39,1.14 0.49,2.88 0.59,3.45 0.1,0.57 0.1,-0.57 0,0"
     stroke="#364fc7"
     stroke-width="1"
     fill="none"
     id="path205"
     style="stroke-linecap:round" />
  <text
     x="703.68555"
     y="164.18304"
     font-family="Cascadia, 'Segoe UI Emoji'"
     font-size="20px"
     fill="#364fc7"
     text-anchor="middle"
     style="font-style:normal;font-variant:normal;font-weight:normal;font-stretch:normal;font-size:18.1333px;font-family:'Source Code Pro';-inkscape-font-specification:'Source Code Pro, Normal';font-variant-ligatures:normal;font-variant-caps:normal;font-variant-numeric:normal;font-variant-east-asian:normal;white-space:pre"
     direction="ltr"
     dominant-baseline="text-before-edge"
     id="text209">bot:Element</text>
  <path
     d="m 820.52369,245.88828 c 0,1.05 -0.2,2.1 -0.61,3.14 -0.41,1.04 -1.02,2.07 -1.83,3.1 -0.8,1.02 -1.82,2.04 -3.02,3.03 -1.2,0.99 -2.6,1.98 -4.18,2.93 -1.58,0.96 -3.36,1.89 -5.3,2.8 -1.94,0.91 -4.07,1.79 -6.35,2.63 -2.29,0.85 -4.75,1.67 -7.35,2.44 -2.6,0.78 -5.36,1.52 -8.25,2.22 -2.89,0.7 -5.93,1.37 -9.07,1.98 -3.14,0.61 -6.43,1.19 -9.79,1.71 -3.36,0.52 -6.85,1 -10.4,1.43 -3.55,0.42 -7.2,0.8 -10.89,1.12 -3.7,0.32 -7.48,0.6 -11.28,0.81 -3.8,0.22 -7.66,0.39 -11.53,0.5 -3.86,0.1 -7.77,0.16 -11.65,0.16 -3.88,0 -7.79,-0.06 -11.65,-0.16 -3.87,-0.11 -7.73,-0.28 -11.53,-0.5 -3.8,-0.21 -7.58,-0.49 -11.28,-0.81 -3.69,-0.32 -7.34,-0.7 -10.89,-1.12 -3.55,-0.43 -7.04,-0.91 -10.4,-1.43 -3.36,-0.52 -6.65,-1.1 -9.79,-1.71 -3.14,-0.61 -6.18,-1.28 -9.07,-1.98 -2.89,-0.7 -5.65,-1.44 -8.25,-2.22 -2.6,-0.77 -5.06,-1.59 -7.35,-2.44 -2.28,-0.84 -4.41,-1.72 -6.35,-2.63 -1.94,-0.91 -3.72,-1.84 -5.3,-2.8 -1.58,-0.95 -2.98,-1.94 -4.18,-2.93 -1.2,-0.99 -2.22,-2.01 -3.02,-3.03 -0.81,-1.03 -1.42,-2.06 -1.83,-3.1 -0.41,-1.04 -0.61,-2.09 -0.61,-3.14 0,-1.05 0.2,-2.1 0.61,-3.14 0.41,-1.04 1.02,-2.07 1.83,-3.1 0.8,-1.02 1.82,-2.04 3.02,-3.03 1.2,-0.99 2.6,-1.98 4.18,-2.93 1.58,-0.96 3.36,-1.89 5.3,-2.8 1.94,-0.91 4.07,-1.79 6.35,-2.63 2.29,-0.85 4.75,-1.67 7.35,-2.44 2.6,-0.78 5.36,-1.52 8.25,-2.22 2.89,-0.7 5.93,-1.37 9.07,-1.98 3.14,-0.61 6.43,-1.19 9.79,-1.71 3.36,-0.52 6.85,-1 10.4,-1.43 3.55,-0.42 7.2,-0.8 10.89,-1.12 3.7,-0.32 7.48,-0.6 11.28,-0.81 3.8,-0.22 7.66,-0.39 11.53,-0.5 3.86,-0.1 7.77,-0.16 11.65,-0.16 3.88,0 7.79,0.06 11.65,0.16 3.87,0.11 7.73,0.28 11.53,0.5 3.8,0.21 7.58,0.49 11.28,0.81 3.69,0.32 7.34,0.7 10.89,1.12 3.55,0.43 7.04,0.91 10.4,1.43 3.36,0.52 6.65,1.1 9.79,1.71 3.14,0.61 6.18,1.28 9.07,1.98 2.89,0.7 5.65,1.44 8.25,2.22 2.6,0.77 5.06,1.59 7.35,2.44 2.28,0.84 4.41,1.72 6.35,2.63 1.94,0.91 3.72,1.84 5.3,2.8 1.58,0.95 2.98,1.94 4.18,2.93 1.2,0.99 2.22,2.01 3.02,3.03 0.81,1.03 1.42,2.06 1.83,3.1 0.41,1.04 0.51,2.62 0.61,3.14 0.1,0.52 0.1,-0.52 0,0"
     stroke="#364fc7"
     stroke-width="1"
     fill="none"
     id="path213"
     style="stroke-linecap:round" />
  <text
     x="709.18127"
     y="237.67508"
     font-family="Cascadia, 'Segoe UI Emoji'"
     font-size="20px"
     fill="#364fc7"
     text-anchor="middle"
     style="font-style:normal;font-variant:normal;font-weight:normal;font-stretch:normal;font-size:18.1333px;font-family:'Source Code Pro';-inkscape-font-specification:'Source Code Pro, Normal';font-variant-ligatures:normal;font-variant-caps:normal;font-variant-numeric:normal;font-variant-east-asian:normal;white-space:pre"
     direction="ltr"
     dominant-baseline="text-before-edge"
     id="text217">geo:Geometry</text>
  <path
     d="m 0,0 c 40.98,16.62 198.35,71.97 245.85,99.73 47.5,27.75 32.64,55.67 39.17,66.81"
     stroke="#000000"
     stroke-width="1.5"
     fill="none"
     stroke-dasharray="8, 9"
     id="path221"
     transform="translate(474.18098,257.85089)"
     style="fill-opacity:0.5;stroke-linecap:round;stroke-opacity:0.5"
     mask="url(#mask1162)" />
  <path
     d="m 270.24,140.43 c 4.34,7.66 8.68,15.32 14.78,26.11"
     stroke="#000000"
     stroke-width="1.5"
     fill="none"
     id="path225"
     transform="translate(474.18098,257.85089)"
     style="fill-opacity:0.5;stroke-linecap:round;stroke-opacity:0.5"
     mask="url(#mask1141)" />
  <path
     d="m 290.48,137.04 c -1.6,8.66 -3.2,17.31 -5.46,29.5"
     stroke="#000000"
     stroke-width="1.5"
     fill="none"
     id="path229"
     transform="translate(474.18098,257.85089)"
     style="fill-opacity:0.5;stroke-linecap:round;stroke-opacity:0.5"
     mask="url(#mask1122)" />
  <text
     x="720.03101"
     y="350.07785"
     font-family="Cascadia, 'Segoe UI Emoji'"
     font-size="16px"
     fill="#000000"
     text-anchor="middle"
     style="font-style:normal;font-variant:normal;font-weight:normal;font-stretch:normal;font-size:18.1333px;font-family:'Source Code Pro';-inkscape-font-specification:'Source Code Pro, Normal';font-variant-ligatures:normal;font-variant-caps:normal;font-variant-numeric:normal;font-variant-east-asian:normal;white-space:pre;fill-opacity:0.5;stroke-opacity:0.5"
     direction="ltr"
     dominant-baseline="text-before-edge"
     id="text240">geo:hasSerialization</text>
  <path
     d="m 466.76998,42.861878 c 8.97,0 44.86,0 53.83,0 m -53.83,0 c 8.97,0 44.86,0 53.83,0"
     stroke="#364fc7"
     stroke-width="1"
     fill="none"
     id="path244"
     style="stroke-linecap:round" />
  <path
     d="m 495.30998,52.071878 c 8.14,-2.97 16.28,-5.93 25.29,-9.21 m -25.29,9.21 c 5.95,-2.17 11.89,-4.33 25.29,-9.21"
     stroke="#364fc7"
     stroke-width="1"
     fill="none"
     id="path248"
     style="stroke-linecap:round" />
  <path
     d="m 495.30998,33.651878 c 8.14,2.97 16.28,5.93 25.29,9.21 m -25.29,-9.21 c 5.95,2.17 11.89,4.33 25.29,9.21"
     stroke="#364fc7"
     stroke-width="1"
     fill="none"
     id="path252"
     style="stroke-linecap:round" />
  <mask
     id="mask258" />
  <path
     d="m 476.19978,214.09086 c 18.79,-5.98 93.95,-29.91 112.73,-35.89 m -112.73,35.89 c 18.79,-5.98 93.95,-29.91 112.73,-35.89"
     stroke="#364fc7"
     stroke-width="1"
     fill="none"
     id="path260"
     style="stroke-linecap:round" />
  <path
     d="m 565.17978,196.53086 c 5.07,-3.91 10.14,-7.83 23.75,-18.33 m -23.75,18.33 c 8.32,-6.42 16.64,-12.84 23.75,-18.33"
     stroke="#364fc7"
     stroke-width="1"
     fill="none"
     id="path264"
     style="stroke-linecap:round" />
  <path
     d="m 558.95978,176.98086 c 6.4,0.26 12.8,0.52 29.97,1.22 m -29.97,-1.22 c 10.5,0.42 20.99,0.85 29.97,1.22"
     stroke="#364fc7"
     stroke-width="1"
     fill="none"
     id="path268"
     style="stroke-linecap:round" />
  <mask
     id="mask274" />
  <path
     d="m 472.0496,243.92826 c 19.76,0 98.8,0 118.56,0 m -118.56,0 c 19.76,0 98.8,0 118.56,0"
     stroke="#364fc7"
     stroke-width="1"
     fill="none"
     id="path276"
     style="stroke-linecap:round" />
  <path
     d="m 562.4196,254.18826 c 6.58,-2.39 13.16,-4.79 28.19,-10.26 m -28.19,10.26 c 6.75,-2.46 13.5,-4.91 28.19,-10.26"
     stroke="#364fc7"
     stroke-width="1"
     fill="none"
     id="path280"
     style="stroke-linecap:round" />
  <path
     d="m 562.4196,233.66826 c 6.58,2.39 13.16,4.79 28.19,10.26 m -28.19,-10.26 c 6.75,2.46 13.5,4.91 28.19,10.26"
     stroke="#364fc7"
     stroke-width="1"
     fill="none"
     id="path284"
     style="stroke-linecap:round" />
  <mask
     id="mask290" />
</svg>
