<svg version="1.1" xmlns="http://www.w3.org/2000/svg" viewBox="0 0 832.0192997623026 635.0402426372316" width="832.0192997623026" height="635.0402426372316">
  <!-- svg-source:excalidraw -->
  
  <defs>
    <style class="style-fonts">
      @font-face {
        font-family: "Virgil";
        src: url("https://file%2B.vscode-resource.vscode-cdn.net/c%3A/Users/phili/.vscode/extensions/pomdtr.excalidraw-editor-3.5.1/public//dist/excalidraw-assets/Virgil.woff2");
      }
      @font-face {
        font-family: "Cascadia";
        src: url("https://file%2B.vscode-resource.vscode-cdn.net/c%3A/Users/phili/.vscode/extensions/pomdtr.excalidraw-editor-3.5.1/public//dist/excalidraw-assets/Cascadia.woff2");
      }
    </style>
  </defs>
  <g stroke-linecap="round" transform="translate(312.4569913262171 14.009899575314193) rotate(0 66.50000000000023 30)"><path d="M15 0 M15 0 C50.42 0, 85.83 0, 118 0 M15 0 C55.38 0, 95.77 0, 118 0 M118 0 C128 0, 133 5, 133 15 M118 0 C128 0, 133 5, 133 15 M133 15 C133 24.19, 133 33.37, 133 45 M133 15 C133 26.71, 133 38.43, 133 45 M133 45 C133 55, 128 60, 118 60 M133 45 C133 55, 128 60, 118 60 M118 60 C84.08 60, 50.15 60, 15 60 M118 60 C84.84 60, 51.69 60, 15 60 M15 60 C5 60, 0 55, 0 45 M15 60 C5 60, 0 55, 0 45 M0 45 C0 34.26, 0 23.52, 0 15 M0 45 C0 38.65, 0 32.3, 0 15 M0 15 C0 5, 5 0, 15 0 M0 15 C0 5, 5 0, 15 0" stroke="#000000" stroke-width="1" fill="none"></path></g><g transform="translate(337.9413663262171 32.00989957531419) rotate(0 41.015625 12)"><text x="41.015625" y="0" font-family="Cascadia, Segoe UI Emoji" font-size="20px" fill="#000000" text-anchor="middle" style="white-space: pre;" direction="ltr" dominant-baseline="text-before-edge">&lt;room1&gt;</text></g><g stroke-linecap="round" transform="translate(298.4569913262171 198.90187928500836) rotate(0 80.50000000000023 32.5)"><path d="M16.25 0 M16.25 0 C55.05 0, 93.84 0, 144.75 0 M16.25 0 C62.05 0, 107.85 0, 144.75 0 M144.75 0 C155.58 0, 161 5.42, 161 16.25 M144.75 0 C155.58 0, 161 5.42, 161 16.25 M161 16.25 C161 25.79, 161 35.32, 161 48.75 M161 16.25 C161 23.87, 161 31.49, 161 48.75 M161 48.75 C161 59.58, 155.58 65, 144.75 65 M161 48.75 C161 59.58, 155.58 65, 144.75 65 M144.75 65 C118.46 65, 92.17 65, 16.25 65 M144.75 65 C118.67 65, 92.58 65, 16.25 65 M16.25 65 C5.42 65, 0 59.58, 0 48.75 M16.25 65 C5.42 65, 0 59.58, 0 48.75 M0 48.75 C0 36.05, 0 23.35, 0 16.25 M0 48.75 C0 37.87, 0 27, 0 16.25 M0 16.25 C0 5.42, 5.42 0, 16.25 0 M0 16.25 C0 5.42, 5.42 0, 16.25 0" stroke="#000000" stroke-width="1" fill="none"></path></g><g transform="translate(326.2226163262171 219.40187928500836) rotate(0 52.734375 12)"><text x="52.734375" y="0" font-family="Cascadia, Segoe UI Emoji" font-size="20px" fill="#000000" text-anchor="middle" style="white-space: pre;" direction="ltr" dominant-baseline="text-before-edge">&lt;object1&gt;</text></g><g stroke-linecap="round" transform="translate(37.487256865478685 435.9178794143172) rotate(0 174.5 33.5)"><path d="M16.75 0 M16.75 0 C80.5 0, 144.24 0, 332.25 0 M16.75 0 C99.57 0, 182.39 0, 332.25 0 M332.25 0 C343.42 0, 349 5.58, 349 16.75 M332.25 0 C343.42 0, 349 5.58, 349 16.75 M349 16.75 C349 27.58, 349 38.42, 349 50.25 M349 16.75 C349 26.38, 349 36.01, 349 50.25 M349 50.25 C349 61.42, 343.42 67, 332.25 67 M349 50.25 C349 61.42, 343.42 67, 332.25 67 M332.25 67 C247.93 67, 163.61 67, 16.75 67 M332.25 67 C240.74 67, 149.22 67, 16.75 67 M16.75 67 C5.58 67, 0 61.42, 0 50.25 M16.75 67 C5.58 67, 0 61.42, 0 50.25 M0 50.25 C0 41.37, 0 32.5, 0 16.75 M0 50.25 C0 41.05, 0 31.86, 0 16.75 M0 16.75 C0 5.58, 5.58 0, 16.75 0 M0 16.75 C0 5.58, 5.58 0, 16.75 0" stroke="#000000" stroke-width="1" fill="none"></path></g><g transform="translate(65.50288186547868 457.4178794143172) rotate(0 146.484375 12)"><text x="146.484375" y="0" font-family="Cascadia, Segoe UI Emoji" font-size="20px" fill="#000000" text-anchor="middle" style="white-space: pre;" direction="ltr" dominant-baseline="text-before-edge">&lt;geometry_data1&gt;^^xsd:...</text></g><g stroke-linecap="round" transform="translate(412.0192997623021 435.4126296639247) rotate(0 205.00000000000023 33.5)"><path d="M16.75 0 M16.75 0 C117.66 0, 218.57 0, 393.25 0 M16.75 0 C147.42 0, 278.09 0, 393.25 0 M393.25 0 C404.42 0, 410 5.58, 410 16.75 M393.25 0 C404.42 0, 410 5.58, 410 16.75 M410 16.75 C410 29.78, 410 42.82, 410 50.25 M410 16.75 C410 28.06, 410 39.37, 410 50.25 M410 50.25 C410 61.42, 404.42 67, 393.25 67 M410 50.25 C410 61.42, 404.42 67, 393.25 67 M393.25 67 C289.29 67, 185.32 67, 16.75 67 M393.25 67 C251.85 67, 110.45 67, 16.75 67 M16.75 67 C5.58 67, 0 61.42, 0 50.25 M16.75 67 C5.58 67, 0 61.42, 0 50.25 M0 50.25 C0 43.47, 0 36.69, 0 16.75 M0 50.25 C0 37.48, 0 24.7, 0 16.75 M0 16.75 C0 5.58, 5.58 0, 16.75 0 M0 16.75 C0 5.58, 5.58 0, 16.75 0" stroke="#000000" stroke-width="1" fill="none"></path></g><g transform="translate(435.3786747623021 456.9126296639247) rotate(0 181.64062500000023 12)"><text x="181.640625" y="0" font-family="Cascadia, Segoe UI Emoji" font-size="20px" fill="#000000" text-anchor="middle" style="white-space: pre;" direction="ltr" dominant-baseline="text-before-edge">&lt;spacial_data1&gt;^^geo:wktLiteral</text></g><g mask="url(#mask-US3KCDXk6x0FyGPSmMDFP)" stroke-linecap="round"><g transform="translate(378.87556789213477 84.31426124845166) rotate(0 0.08142343408280794 51.271340171882684)"><path d="M0 0 C0.03 17.09, 0.14 85.45, 0.16 102.54 M0 0 C0.03 17.09, 0.14 85.45, 0.16 102.54" stroke="#000000" stroke-width="1" fill="none"></path></g><g transform="translate(378.87556789213477 84.31426124845166) rotate(0 0.08142343408280794 51.271340171882684)"><path d="M-10.14 74.37 C-6.6 84.04, -3.07 93.71, 0.16 102.54 M-10.14 74.37 C-6.76 83.61, -3.38 92.85, 0.16 102.54" stroke="#000000" stroke-width="1" fill="none"></path></g><g transform="translate(378.87556789213477 84.31426124845166) rotate(0 0.08142343408280794 51.271340171882684)"><path d="M10.38 74.34 C6.87 84.02, 3.37 93.7, 0.16 102.54 M10.38 74.34 C7.03 83.59, 3.68 92.84, 0.16 102.54" stroke="#000000" stroke-width="1" fill="none"></path></g></g><mask id="mask-US3KCDXk6x0FyGPSmMDFP"><rect x="0" y="0" fill="#fff" width="479.0384147603004" height="286.856941592217"></rect><rect x="289.89449132621803" y="126.08560142033434" fill="#000" width="178.125" height="19" opacity="1"></rect></mask><g transform="translate(289.8944913262176 126.08560142033434) rotate(0 89.0625 9.5)"><text x="89.0625" y="0" font-family="Cascadia, Segoe UI Emoji" font-size="16px" fill="#000000" text-anchor="middle" style="white-space: pre;" direction="ltr" dominant-baseline="text-before-edge">bot:containsElement</text></g><g mask="url(#mask-rwAPjYAT-j0pbhZt-MXY8)" stroke-linecap="round"><g transform="translate(345.96954281351327 272.0891717277659) rotate(0 -85.09825995997676 74.58441702603568)"><path d="M0 0 C-12.18 11.06, -44.73 41.5, -73.1 66.36 C-101.47 91.22, -154.01 135.37, -170.2 149.17 M0 0 C-12.18 11.06, -44.73 41.5, -73.1 66.36 C-101.47 91.22, -154.01 135.37, -170.2 149.17" stroke="#000000" stroke-width="1" fill="none"></path></g><g transform="translate(345.96954281351327 272.0891717277659) rotate(0 -85.09825995997676 74.58441702603568)"><path d="M-155.32 123.12 C-159.23 129.96, -163.14 136.81, -170.2 149.17 M-155.32 123.12 C-159.67 130.74, -164.03 138.36, -170.2 149.17" stroke="#000000" stroke-width="1" fill="none"></path></g><g transform="translate(345.96954281351327 272.0891717277659) rotate(0 -85.09825995997676 74.58441702603568)"><path d="M-142.06 138.77 C-149.45 141.5, -156.84 144.24, -170.2 149.17 M-142.06 138.77 C-150.29 141.82, -158.52 144.86, -170.2 149.17" stroke="#000000" stroke-width="1" fill="none"></path></g></g><mask id="mask-rwAPjYAT-j0pbhZt-MXY8"><rect x="0" y="0" fill="#fff" width="616.1660627334669" height="521.2580057798373"></rect><rect x="207.24350390175414" y="328.9478797846368" fill="#000" width="131.25" height="19" opacity="1"></rect></mask><g transform="translate(207.24350390175414 328.9478797846368) rotate(0 53.627778951782375 17.72570896916477)"><text x="65.625" y="0" font-family="Cascadia, Segoe UI Emoji" font-size="16px" fill="#000000" text-anchor="middle" style="white-space: pre;" direction="ltr" dominant-baseline="text-before-edge">fog:as..._v...</text></g><g mask="url(#mask-_JA7TDbBM-EO1kfZ9r6a3)" stroke-linecap="round"><g stroke-opacity="0.5" fill-opacity="0.5" transform="translate(376.08796812872106 272.4474243456916) rotate(0 -22.215673274113215 77.34339243586192)"><path d="M0 0 C0.39 16.26, 10.7 71.79, 2.36 97.57 C-5.98 123.35, -41.31 145.17, -50.04 154.69" stroke="#000000" stroke-width="1.5" fill="none" stroke-dasharray="8 9"></path></g><g stroke-opacity="0.5" fill-opacity="0.5" transform="translate(376.08796812872106 272.4474243456916) rotate(0 -22.215673274113215 77.34339243586192)"><path d="M-35.33 128.54 C-40.1 137.03, -44.88 145.52, -50.04 154.69" stroke="#000000" stroke-width="1.5" fill="none"></path></g><g stroke-opacity="0.5" fill-opacity="0.5" transform="translate(376.08796812872106 272.4474243456916) rotate(0 -22.215673274113215 77.34339243586192)"><path d="M-21.96 144.12 C-31.08 147.55, -40.2 150.98, -50.04 154.69" stroke="#000000" stroke-width="1.5" fill="none"></path></g></g><mask id="mask-_JA7TDbBM-EO1kfZ9r6a3"><rect x="0" y="0" fill="#fff" width="528.4938081845779" height="527.1342092174154"></rect><rect x="336.26381757180616" y="360.5196360189675" fill="#000" width="84.375" height="19" opacity="1"></rect></mask><g stroke-opacity="0.5" fill-opacity="0.5" transform="translate(336.2638175718057 360.5196360189675) rotate(0 17.60847728280214 -10.728819237413973)"><text x="42.1875" y="0" font-family="Cascadia, Segoe UI Emoji" font-size="16px" fill="#000000" text-anchor="middle" style="white-space: pre;" direction="ltr" dominant-baseline="text-before-edge">fog:as...</text></g><g mask="url(#mask--0v-n8O1zJqgZBE6IorPS)" stroke-linecap="round"><g stroke-opacity="0.5" fill-opacity="0.5" transform="translate(286.8060832015367 253.25386396617432) rotate(0 -94.7802795157379 85.52186740360048)"><path d="M0 0 C-29.73 8.5, -149.89 22.48, -178.37 50.99 C-206.85 79.5, -172.14 151.03, -170.89 171.04" stroke="#000000" stroke-width="1.5" fill="none" stroke-dasharray="8 9"></path></g><g stroke-opacity="0.5" fill-opacity="0.5" transform="translate(286.8060832015367 253.25386396617432) rotate(0 -94.7802795157379 85.52186740360048)"><path d="M-187.84 146.29 C-183.39 152.8, -178.93 159.3, -170.89 171.04" stroke="#000000" stroke-width="1.5" fill="none"></path></g><g stroke-opacity="0.5" fill-opacity="0.5" transform="translate(286.8060832015367 253.25386396617432) rotate(0 -94.7802795157379 85.52186740360048)"><path d="M-167.97 141.19 C-168.74 149.03, -169.5 156.88, -170.89 171.04" stroke="#000000" stroke-width="1.5" fill="none"></path></g></g><mask id="mask--0v-n8O1zJqgZBE6IorPS"><rect x="0" y="0" fill="#fff" width="565.1746664030732" height="524.2975987733753"></rect><rect x="10" y="285.24487858913744" fill="#000" width="196.875" height="38" opacity="1"></rect></mask><g stroke-opacity="0.5" fill-opacity="0.5" transform="translate(10 285.24487858913744) rotate(0 182.0258036857988 53.53085278063736)"><text x="98.4375" y="0" font-family="Cascadia, Segoe UI Emoji" font-size="16px" fill="#000000" text-anchor="middle" style="white-space: pre;" direction="ltr" dominant-baseline="text-before-edge">omg:hasSimpleGeometry</text><text x="98.4375" y="19" font-family="Cascadia, Segoe UI Emoji" font-size="16px" fill="#000000" text-anchor="middle" style="white-space: pre;" direction="ltr" dominant-baseline="text-before-edge">Description</text></g><g mask="url(#mask-y1p0Fd_HZE8pZgPDzMRew)" stroke-linecap="round"><g transform="translate(416.266583370872 271.46711434862937) rotate(0 99.94943035931487 75.85354385699907)"><path d="M0 0 C17.18 12.5, 69.78 49.73, 103.09 75.02 C136.41 100.3, 183.76 138.93, 199.9 151.71 M0 0 C17.18 12.5, 69.78 49.73, 103.09 75.02 C136.41 100.3, 183.76 138.93, 199.9 151.71" stroke="#000000" stroke-width="1" fill="none"></path></g><g transform="translate(416.266583370872 271.46711434862937) rotate(0 99.94943035931487 75.85354385699907)"><path d="M171.49 142.08 C180.51 145.14, 189.54 148.2, 199.9 151.71 M171.49 142.08 C182.57 145.83, 193.65 149.59, 199.9 151.71" stroke="#000000" stroke-width="1" fill="none"></path></g><g transform="translate(416.266583370872 271.46711434862937) rotate(0 99.94943035931487 75.85354385699907)"><path d="M184.32 126.07 C189.27 134.21, 194.22 142.36, 199.9 151.71 M184.32 126.07 C190.4 136.07, 196.47 146.07, 199.9 151.71" stroke="#000000" stroke-width="1" fill="none"></path></g></g><mask id="mask-y1p0Fd_HZE8pZgPDzMRew"><rect x="0" y="0" fill="#fff" width="716.1654440895015" height="523.1742020626275"></rect><rect x="477.1735709841355" y="336.88430558281834" fill="#000" width="84.375" height="19.2" opacity="1"></rect></mask><g transform="translate(477.17357098413504 336.88430558281834) rotate(0 39.04244274605185 10.436352622810091)"><text x="42.1875" y="0" font-family="Cascadia, Segoe UI Emoji" font-size="16px" fill="#000000" text-anchor="middle" style="white-space: pre;" direction="ltr" dominant-baseline="text-before-edge">geo:asWKT</text></g><g stroke-linecap="round" transform="translate(323.09984595075684 543.0402426372316) rotate(0 71.99999999999977 41)"><path d="M144 41 C144 42.65, 143.82 44.31, 143.48 45.94 C143.13 47.58, 142.6 49.21, 141.91 50.81 C141.22 52.41, 140.35 54, 139.32 55.54 C138.3 57.08, 137.1 58.6, 135.75 60.05 C134.41 61.51, 132.9 62.93, 131.25 64.29 C129.61 65.65, 127.81 66.95, 125.89 68.19 C123.97 69.42, 121.91 70.6, 119.74 71.69 C117.58 72.78, 115.28 73.81, 112.9 74.74 C110.52 75.68, 108.02 76.54, 105.46 77.3 C102.9 78.07, 100.24 78.75, 97.53 79.34 C94.83 79.92, 92.04 80.41, 89.23 80.81 C86.42 81.2, 83.55 81.5, 80.68 81.7 C77.81 81.9, 74.89 82, 72 82 C69.11 82, 66.19 81.9, 63.32 81.7 C60.45 81.5, 57.58 81.2, 54.77 80.81 C51.96 80.41, 49.17 79.92, 46.47 79.34 C43.76 78.75, 41.1 78.07, 38.54 77.3 C35.98 76.54, 33.48 75.68, 31.1 74.74 C28.72 73.81, 26.42 72.78, 24.26 71.69 C22.09 70.6, 20.03 69.42, 18.11 68.19 C16.19 66.95, 14.39 65.65, 12.75 64.29 C11.1 62.93, 9.59 61.51, 8.25 60.05 C6.9 58.6, 5.7 57.08, 4.68 55.54 C3.65 54, 2.78 52.41, 2.09 50.81 C1.4 49.21, 0.87 47.58, 0.52 45.94 C0.18 44.31, 0 42.65, 0 41 C0 39.35, 0.18 37.69, 0.52 36.06 C0.87 34.42, 1.4 32.79, 2.09 31.19 C2.78 29.59, 3.65 28, 4.68 26.46 C5.7 24.92, 6.9 23.4, 8.25 21.95 C9.59 20.49, 11.1 19.07, 12.75 17.71 C14.39 16.35, 16.19 15.05, 18.11 13.81 C20.03 12.58, 22.09 11.4, 24.26 10.31 C26.42 9.22, 28.72 8.19, 31.1 7.26 C33.48 6.32, 35.98 5.46, 38.54 4.7 C41.1 3.93, 43.76 3.25, 46.47 2.66 C49.17 2.08, 51.96 1.59, 54.77 1.19 C57.58 0.8, 60.45 0.5, 63.32 0.3 C66.19 0.1, 69.11 0, 72 0 C74.89 0, 77.81 0.1, 80.68 0.3 C83.55 0.5, 86.42 0.8, 89.23 1.19 C92.04 1.59, 94.83 2.08, 97.53 2.66 C100.24 3.25, 102.9 3.93, 105.46 4.7 C108.02 5.46, 110.52 6.32, 112.9 7.26 C115.28 8.19, 117.58 9.22, 119.74 10.31 C121.91 11.4, 123.97 12.58, 125.89 13.81 C127.81 15.05, 129.61 16.35, 131.25 17.71 C132.9 19.07, 134.41 20.49, 135.75 21.95 C137.1 23.4, 138.3 24.92, 139.32 26.46 C140.35 28, 141.22 29.59, 141.91 31.19 C142.6 32.79, 143.13 34.42, 143.48 36.06 C143.82 37.69, 144 39.35, 144 41" stroke="#364fc7" stroke-width="1.5" fill="none" stroke-dasharray="8 9"></path></g><g transform="translate(354.17253270532547 572.0488646085832) rotate(0 41.015625 12)"><text x="41.015625" y="0" font-family="Cascadia, Segoe UI Emoji" font-size="20px" fill="#364fc7" text-anchor="middle" style="white-space: pre;" direction="ltr" dominant-baseline="text-before-edge">Literal</text></g><g stroke-linecap="round"><g transform="translate(297.13629199882826 514.9501572185031) rotate(0 16.499124876114365 16.499124876114365)"><path d="M0 0 C5.5 5.5, 27.5 27.5, 33 33 M0 0 C5.5 5.5, 27.5 27.5, 33 33" stroke="#364fc7" stroke-width="1" fill="none"></path></g><g transform="translate(297.13629199882826 514.9501572185031) rotate(0 16.499124876114365 16.499124876114365)"><path d="M11.85 23.14 C16.24 25.18, 20.62 27.23, 33 33 M11.85 23.14 C16.81 25.45, 21.77 27.76, 33 33" stroke="#364fc7" stroke-width="1" fill="none"></path></g><g transform="translate(297.13629199882826 514.9501572185031) rotate(0 16.499124876114365 16.499124876114365)"><path d="M23.14 11.85 C25.18 16.24, 27.23 20.62, 33 33 M23.14 11.85 C25.45 16.81, 27.76 21.77, 33 33" stroke="#364fc7" stroke-width="1" fill="none"></path></g></g><mask></mask><g stroke-linecap="round"><g transform="translate(506.46893886452835 514.9501572185031) rotate(0 -18.56151548562866 17.01472252849271)"><path d="M0 0 C-6.19 5.67, -30.94 28.36, -37.12 34.03 M0 0 C-6.19 5.67, -30.94 28.36, -37.12 34.03" stroke="#364fc7" stroke-width="1" fill="none"></path></g><g transform="translate(506.46893886452835 514.9501572185031) rotate(0 -18.56151548562866 17.01472252849271)"><path d="M-25.5 11.69 C-29.06 18.53, -32.62 25.37, -37.12 34.03 M-25.5 11.69 C-28.84 18.11, -32.18 24.54, -37.12 34.03" stroke="#364fc7" stroke-width="1" fill="none"></path></g><g transform="translate(506.46893886452835 514.9501572185031) rotate(0 -18.56151548562866 17.01472252849271)"><path d="M-13.86 24.39 C-20.99 27.34, -28.11 30.29, -37.12 34.03 M-13.86 24.39 C-20.55 27.16, -27.24 29.93, -37.12 34.03" stroke="#364fc7" stroke-width="1" fill="none"></path></g></g><mask></mask><g stroke-linecap="round" transform="translate(525.0684546109323 10) rotate(0 81 33)"><path d="M162 33 C162 34.33, 161.8 35.66, 161.41 36.98 C161.02 38.29, 160.43 39.61, 159.65 40.9 C158.87 42.18, 157.89 43.46, 156.74 44.7 C155.58 45.94, 154.23 47.16, 152.72 48.34 C151.21 49.51, 149.51 50.65, 147.66 51.75 C145.81 52.84, 143.79 53.89, 141.63 54.88 C139.47 55.88, 137.15 56.82, 134.71 57.7 C132.28 58.58, 129.69 59.41, 127.01 60.16 C124.33 60.91, 121.52 61.6, 118.64 62.22 C115.76 62.84, 112.77 63.39, 109.72 63.86 C106.68 64.33, 103.54 64.72, 100.38 65.04 C97.22 65.36, 93.99 65.6, 90.76 65.76 C87.53 65.92, 84.25 66, 81 66 C77.75 66, 74.47 65.92, 71.24 65.76 C68.01 65.6, 64.78 65.36, 61.62 65.04 C58.46 64.72, 55.32 64.33, 52.28 63.86 C49.23 63.39, 46.24 62.84, 43.36 62.22 C40.48 61.6, 37.67 60.91, 34.99 60.16 C32.31 59.41, 29.72 58.58, 27.29 57.7 C24.85 56.82, 22.53 55.88, 20.37 54.88 C18.21 53.89, 16.19 52.84, 14.34 51.75 C12.49 50.65, 10.79 49.51, 9.28 48.34 C7.77 47.16, 6.42 45.94, 5.26 44.7 C4.11 43.46, 3.13 42.18, 2.35 40.9 C1.57 39.61, 0.98 38.29, 0.59 36.98 C0.2 35.66, 0 34.33, 0 33 C0 31.67, 0.2 30.34, 0.59 29.02 C0.98 27.71, 1.57 26.39, 2.35 25.1 C3.13 23.82, 4.11 22.54, 5.26 21.3 C6.42 20.06, 7.77 18.84, 9.28 17.66 C10.79 16.49, 12.49 15.35, 14.34 14.25 C16.19 13.16, 18.21 12.11, 20.37 11.12 C22.53 10.12, 24.85 9.18, 27.29 8.3 C29.72 7.42, 32.31 6.59, 34.99 5.84 C37.67 5.09, 40.48 4.4, 43.36 3.78 C46.24 3.16, 49.23 2.61, 52.28 2.14 C55.32 1.67, 58.46 1.28, 61.62 0.96 C64.78 0.64, 68.01 0.4, 71.24 0.24 C74.47 0.08, 77.75 0, 81 0 C84.25 0, 87.53 0.08, 90.76 0.24 C93.99 0.4, 97.22 0.64, 100.38 0.96 C103.54 1.28, 106.68 1.67, 109.72 2.14 C112.77 2.61, 115.76 3.16, 118.64 3.78 C121.52 4.4, 124.33 5.09, 127.01 5.84 C129.69 6.59, 132.28 7.42, 134.71 8.3 C137.15 9.18, 139.47 10.12, 141.63 11.12 C143.79 12.11, 145.81 13.16, 147.66 14.25 C149.51 15.35, 151.21 16.49, 152.72 17.66 C154.23 18.84, 155.58 20.06, 156.74 21.3 C157.89 22.54, 158.87 23.82, 159.65 25.1 C160.43 26.39, 161.02 27.71, 161.41 29.02 C161.8 30.34, 162 31.67, 162 33" stroke="#364fc7" stroke-width="1" fill="none"></path></g><g transform="translate(559.4178053348223 31.16547622084397) rotate(0 46.875 12)"><text x="46.875" y="0" font-family="Cascadia, Segoe UI Emoji" font-size="20px" fill="#364fc7" text-anchor="middle" style="white-space: pre;" direction="ltr" dominant-baseline="text-before-edge">bot:Zone</text></g><g stroke-linecap="round" transform="translate(588.8460044054382 139.01756319918832) rotate(0 107 33)"><path d="M214 33 C214 34.15, 213.8 35.31, 213.41 36.45 C213.02 37.59, 212.44 38.74, 211.66 39.86 C210.89 40.99, 209.92 42.1, 208.76 43.2 C207.61 44.29, 206.27 45.37, 204.75 46.42 C203.23 47.47, 201.53 48.5, 199.66 49.5 C197.8 50.5, 195.76 51.47, 193.56 52.4 C191.37 53.33, 189.01 54.23, 186.52 55.08 C184.02 55.94, 181.37 56.75, 178.6 57.52 C175.83 58.29, 172.91 59.02, 169.89 59.7 C166.88 60.37, 163.73 61, 160.5 61.58 C157.27 62.15, 153.93 62.68, 150.52 63.15 C147.11 63.61, 143.61 64.03, 140.06 64.38 C136.52 64.74, 132.89 65.04, 129.25 65.28 C125.6 65.52, 121.89 65.7, 118.18 65.82 C114.48 65.94, 110.73 66, 107 66 C103.27 66, 99.52 65.94, 95.82 65.82 C92.11 65.7, 88.4 65.52, 84.75 65.28 C81.11 65.04, 77.48 64.74, 73.94 64.38 C70.39 64.03, 66.89 63.61, 63.48 63.15 C60.07 62.68, 56.73 62.15, 53.5 61.58 C50.27 61, 47.12 60.37, 44.11 59.7 C41.09 59.02, 38.17 58.29, 35.4 57.52 C32.63 56.75, 29.98 55.94, 27.48 55.08 C24.99 54.23, 22.63 53.33, 20.44 52.4 C18.24 51.47, 16.2 50.5, 14.34 49.5 C12.47 48.5, 10.77 47.47, 9.25 46.42 C7.73 45.37, 6.39 44.29, 5.24 43.2 C4.08 42.1, 3.11 40.99, 2.34 39.86 C1.56 38.74, 0.98 37.59, 0.59 36.45 C0.2 35.31, 0 34.15, 0 33 C0 31.85, 0.2 30.69, 0.59 29.55 C0.98 28.41, 1.56 27.26, 2.34 26.14 C3.11 25.01, 4.08 23.9, 5.24 22.8 C6.39 21.71, 7.73 20.63, 9.25 19.58 C10.77 18.53, 12.47 17.5, 14.34 16.5 C16.2 15.5, 18.24 14.53, 20.44 13.6 C22.63 12.67, 24.99 11.77, 27.48 10.92 C29.98 10.06, 32.63 9.25, 35.4 8.48 C38.17 7.71, 41.09 6.98, 44.11 6.3 C47.12 5.63, 50.27 5, 53.5 4.42 C56.73 3.85, 60.07 3.32, 63.48 2.85 C66.89 2.39, 70.39 1.97, 73.94 1.62 C77.48 1.26, 81.11 0.96, 84.75 0.72 C88.4 0.48, 92.11 0.3, 95.82 0.18 C99.52 0.06, 103.27 0, 107 0 C110.73 0, 114.48 0.06, 118.18 0.18 C121.89 0.3, 125.6 0.48, 129.25 0.72 C132.89 0.96, 136.52 1.26, 140.06 1.62 C143.61 1.97, 147.11 2.39, 150.52 2.85 C153.93 3.32, 157.27 3.85, 160.5 4.42 C163.73 5, 166.88 5.63, 169.89 6.3 C172.91 6.98, 175.83 7.71, 178.6 8.48 C181.37 9.25, 184.02 10.06, 186.52 10.92 C189.01 11.77, 191.37 12.67, 193.56 13.6 C195.76 14.53, 197.8 15.5, 199.66 16.5 C201.53 17.5, 203.23 18.53, 204.75 19.58 C206.27 20.63, 207.61 21.71, 208.76 22.8 C209.92 23.9, 210.89 25.01, 211.66 26.14 C212.44 27.26, 213.02 28.41, 213.41 29.55 C213.8 30.69, 213.9 32.43, 214 33 C214.1 33.57, 214.1 32.43, 214 33" stroke="#364fc7" stroke-width="1" fill="none"></path></g><g transform="translate(631.2324538184776 160.18303942003217) rotate(0 64.453125 12)"><text x="64.453125" y="0" font-family="Cascadia, Segoe UI Emoji" font-size="20px" fill="#364fc7" text-anchor="middle" style="white-space: pre;" direction="ltr" dominant-baseline="text-before-edge">bot:Element</text></g><g stroke-linecap="round" transform="translate(589.5236949363652 215.88828394324764) rotate(0 111.5 30)"><path d="M223 30 C223 31.05, 222.8 32.1, 222.39 33.14 C221.98 34.18, 221.37 35.21, 220.56 36.24 C219.76 37.26, 218.74 38.28, 217.54 39.27 C216.34 40.26, 214.94 41.25, 213.36 42.2 C211.78 43.16, 210 44.09, 208.06 45 C206.12 45.91, 203.99 46.79, 201.71 47.63 C199.42 48.48, 196.96 49.3, 194.36 50.07 C191.76 50.85, 189 51.59, 186.11 52.29 C183.22 52.99, 180.18 53.66, 177.04 54.27 C173.9 54.88, 170.61 55.46, 167.25 55.98 C163.89 56.5, 160.4 56.98, 156.85 57.41 C153.3 57.83, 149.65 58.21, 145.96 58.53 C142.26 58.85, 138.48 59.13, 134.68 59.34 C130.88 59.56, 127.02 59.73, 123.15 59.84 C119.29 59.94, 115.38 60, 111.5 60 C107.62 60, 103.71 59.94, 99.85 59.84 C95.98 59.73, 92.12 59.56, 88.32 59.34 C84.52 59.13, 80.74 58.85, 77.04 58.53 C73.35 58.21, 69.7 57.83, 66.15 57.41 C62.6 56.98, 59.11 56.5, 55.75 55.98 C52.39 55.46, 49.1 54.88, 45.96 54.27 C42.82 53.66, 39.78 52.99, 36.89 52.29 C34 51.59, 31.24 50.85, 28.64 50.07 C26.04 49.3, 23.58 48.48, 21.29 47.63 C19.01 46.79, 16.88 45.91, 14.94 45 C13 44.09, 11.22 43.16, 9.64 42.2 C8.06 41.25, 6.66 40.26, 5.46 39.27 C4.26 38.28, 3.24 37.26, 2.44 36.24 C1.63 35.21, 1.02 34.18, 0.61 33.14 C0.2 32.1, 0 31.05, 0 30 C0 28.95, 0.2 27.9, 0.61 26.86 C1.02 25.82, 1.63 24.79, 2.44 23.76 C3.24 22.74, 4.26 21.72, 5.46 20.73 C6.66 19.74, 8.06 18.75, 9.64 17.8 C11.22 16.84, 13 15.91, 14.94 15 C16.88 14.09, 19.01 13.21, 21.29 12.37 C23.58 11.52, 26.04 10.7, 28.64 9.93 C31.24 9.15, 34 8.41, 36.89 7.71 C39.78 7.01, 42.82 6.34, 45.96 5.73 C49.1 5.12, 52.39 4.54, 55.75 4.02 C59.11 3.5, 62.6 3.02, 66.15 2.59 C69.7 2.17, 73.35 1.79, 77.04 1.47 C80.74 1.15, 84.52 0.87, 88.32 0.66 C92.12 0.44, 95.98 0.27, 99.85 0.16 C103.71 0.06, 107.62 0, 111.5 0 C115.38 0, 119.29 0.06, 123.15 0.16 C127.02 0.27, 130.88 0.44, 134.68 0.66 C138.48 0.87, 142.26 1.15, 145.96 1.47 C149.65 1.79, 153.3 2.17, 156.85 2.59 C160.4 3.02, 163.89 3.5, 167.25 4.02 C170.61 4.54, 173.9 5.12, 177.04 5.73 C180.18 6.34, 183.22 7.01, 186.11 7.71 C189 8.41, 191.76 9.15, 194.36 9.93 C196.96 10.7, 199.42 11.52, 201.71 12.37 C203.99 13.21, 206.12 14.09, 208.06 15 C210 15.91, 211.78 16.84, 213.36 17.8 C214.94 18.75, 216.34 19.74, 217.54 20.73 C218.74 21.72, 219.76 22.74, 220.56 23.76 C221.37 24.79, 221.98 25.82, 222.39 26.86 C222.8 27.9, 222.9 29.48, 223 30 C223.1 30.52, 223.1 29.48, 223 30" stroke="#364fc7" stroke-width="1" fill="none"></path></g><g transform="translate(630.8687888340655 233.67508050765127) rotate(0 70.3125 12)"><text x="70.3125" y="0" font-family="Cascadia, Segoe UI Emoji" font-size="20px" fill="#364fc7" text-anchor="middle" style="white-space: pre;" direction="ltr" dominant-baseline="text-before-edge">geo:Geometry</text></g><g mask="url(#mask-lEa4fXYtPJUHhmKKnT-uE)" stroke-linecap="round"><g stroke-opacity="0.5" fill-opacity="0.5" transform="translate(466.1809826090548 257.8508885957558) rotate(0 142.5105243656285 83.26895342104581)"><path d="M0 0 C40.98 16.62, 198.35 71.97, 245.85 99.73 C293.35 127.48, 278.49 155.4, 285.02 166.54" stroke="#000000" stroke-width="1.5" fill="none" stroke-dasharray="8 9"></path></g><g stroke-opacity="0.5" fill-opacity="0.5" transform="translate(466.1809826090548 257.8508885957558) rotate(0 142.5105243656285 83.26895342104581)"><path d="M270.24 140.43 C274.58 148.09, 278.92 155.75, 285.02 166.54" stroke="#000000" stroke-width="1.5" fill="none"></path></g><g stroke-opacity="0.5" fill-opacity="0.5" transform="translate(466.1809826090548 257.8508885957558) rotate(0 142.5105243656285 83.26895342104581)"><path d="M290.48 137.04 C288.88 145.7, 287.28 154.35, 285.02 166.54" stroke="#000000" stroke-width="1.5" fill="none"></path></g></g><mask id="mask-lEa4fXYtPJUHhmKKnT-uE"><rect x="0" y="0" fill="#fff" width="851.2020313403116" height="524.3887954378474"></rect><rect x="618.2810198069647" y="348.07784971818955" fill="#000" width="187.5" height="19" opacity="1"></rect></mask><g stroke-opacity="0.5" fill-opacity="0.5" transform="translate(618.2810198069647 348.07784971818955) rotate(0 -9.589512832281343 -6.958007701387942)"><text x="93.75" y="0" font-family="Cascadia, Segoe UI Emoji" font-size="16px" fill="#000000" text-anchor="middle" style="white-space: pre;" direction="ltr" dominant-baseline="text-before-edge">geo:hasSerialization</text></g><g stroke-linecap="round"><g transform="translate(458.76998452256066 42.86187841156925) rotate(0 26.913901327121494 0)"><path d="M0 0 C8.97 0, 44.86 0, 53.83 0 M0 0 C8.97 0, 44.86 0, 53.83 0" stroke="#364fc7" stroke-width="1" fill="none"></path></g><g transform="translate(458.76998452256066 42.86187841156925) rotate(0 26.913901327121494 0)"><path d="M28.54 9.21 C36.68 6.24, 44.82 3.28, 53.83 0 M28.54 9.21 C34.49 7.04, 40.43 4.88, 53.83 0" stroke="#364fc7" stroke-width="1" fill="none"></path></g><g transform="translate(458.76998452256066 42.86187841156925) rotate(0 26.913901327121494 0)"><path d="M28.54 -9.21 C36.68 -6.24, 44.82 -3.28, 53.83 0 M28.54 -9.21 C34.49 -7.04, 40.43 -4.88, 53.83 0" stroke="#364fc7" stroke-width="1" fill="none"></path></g></g><mask></mask><g stroke-linecap="round"><g transform="translate(468.19977629199 214.0908567111719) rotate(0 56.367175243555266 -17.944787866029515)"><path d="M0 0 C18.79 -5.98, 93.95 -29.91, 112.73 -35.89 M0 0 C18.79 -5.98, 93.95 -29.91, 112.73 -35.89" stroke="#364fc7" stroke-width="1" fill="none"></path></g><g transform="translate(468.19977629199 214.0908567111719) rotate(0 56.367175243555266 -17.944787866029515)"><path d="M88.98 -17.56 C94.05 -21.47, 99.12 -25.39, 112.73 -35.89 M88.98 -17.56 C97.3 -23.98, 105.62 -30.4, 112.73 -35.89" stroke="#364fc7" stroke-width="1" fill="none"></path></g><g transform="translate(468.19977629199 214.0908567111719) rotate(0 56.367175243555266 -17.944787866029515)"><path d="M82.76 -37.11 C89.16 -36.85, 95.56 -36.59, 112.73 -35.89 M82.76 -37.11 C93.26 -36.69, 103.75 -36.26, 112.73 -35.89" stroke="#364fc7" stroke-width="1" fill="none"></path></g></g><mask></mask><g stroke-linecap="round"><g transform="translate(464.04959590959606 243.928259261814) rotate(0 59.28088258387379 0)"><path d="M0 0 C19.76 0, 98.8 0, 118.56 0 M0 0 C19.76 0, 98.8 0, 118.56 0" stroke="#364fc7" stroke-width="1" fill="none"></path></g><g transform="translate(464.04959590959606 243.928259261814) rotate(0 59.28088258387379 0)"><path d="M90.37 10.26 C96.95 7.87, 103.53 5.47, 118.56 0 M90.37 10.26 C97.12 7.8, 103.87 5.35, 118.56 0" stroke="#364fc7" stroke-width="1" fill="none"></path></g><g transform="translate(464.04959590959606 243.928259261814) rotate(0 59.28088258387379 0)"><path d="M90.37 -10.26 C96.95 -7.87, 103.53 -5.47, 118.56 0 M90.37 -10.26 C97.12 -7.8, 103.87 -5.35, 118.56 0" stroke="#364fc7" stroke-width="1" fill="none"></path></g></g><mask></mask></svg>